<svg width="305" height="305" viewBox="0 0 305 305" fill="none" xmlns="http://www.w3.org/2000/svg">
<path d="M138.375 132.973C140.138 145.128 146.618 154.246 155.856 161.695C160.29 165.269 164.982 168.364 170.504 170.016C170.914 170.139 171.248 170.308 171.406 170.859C172.87 175.978 176.244 179.533 180.858 181.945C184.238 183.711 187.504 183.126 190.467 180.891C193.328 178.732 194.337 175.723 194.058 172.232C193.92 170.504 193.678 168.784 193.559 167.055C193.466 165.71 192.486 166.02 191.702 165.961C190.782 165.891 190.66 166.492 190.693 167.22C190.774 168.95 191.166 170.656 191.035 172.405C190.926 173.85 190.736 175.281 190.066 176.57C188.213 180.136 184.171 180.981 180.662 178.575C178.835 177.322 177.454 175.628 176.106 173.905C175.416 173.024 174.747 172.125 173.964 171.096C175.78 170.717 177.458 170.644 179.011 169.977C182.025 168.683 182.761 167.501 182.129 164.354C181.778 162.61 181.24 160.902 180.728 159.194C180.511 158.47 180.081 157.653 179.221 157.831C178.423 157.996 178.276 158.861 178.214 159.642C178.102 161.044 178.7 162.251 179.196 163.492C180.361 166.407 179.996 167.01 176.951 167.533C174.511 167.951 172.239 167.323 169.976 166.585C165.575 165.151 162.098 162.365 158.758 158.92C161.998 157.794 163.683 155.462 164.417 152.411C164.99 150.031 164.97 147.591 164.868 145.16C164.852 144.786 164.677 144.372 164.454 144.064C163.994 143.428 163.455 142.631 162.569 142.927C161.7 143.217 161.918 144.099 161.94 144.859C162.005 147.131 162.126 149.424 161.768 151.669C161.399 153.983 160.302 155.877 157.907 156.721C157.498 156.865 157.127 157.12 156.619 157.386C153.72 155.358 151.535 152.551 149.295 149.779C144.765 144.171 142.536 137.657 142.092 130.592C141.648 123.544 144.275 117.76 150.426 113.938C160.437 107.719 170.65 108.472 180.944 113.225C181.588 113.522 181.826 113.881 181.74 114.593C181.032 120.478 182.97 125.639 186.309 130.322C189.022 134.125 192.658 136.903 197.014 138.56C199.739 139.596 202.605 140.035 205.21 137.814C208.206 142.351 211.172 146.849 214.144 151.343C217.866 156.97 221.576 162.605 225.34 168.203C225.853 168.966 226.094 169.555 225.432 170.299C225.238 170.518 225.122 170.805 224.972 171.062C222.848 174.71 221.815 175.041 217.836 173.501C213.861 171.963 210.773 169.151 207.615 166.446C206.114 165.16 204.725 163.746 203.139 162.253C203.39 163.824 203.988 165.088 204.786 166.18C208.359 171.074 212.909 174.786 218.773 176.496C223.021 177.735 225.674 176.237 227.478 172.181C227.582 171.949 227.671 171.727 228.036 171.603C234.171 180.44 240.322 189.299 246.473 198.158C246.368 198.274 246.263 198.391 246.158 198.508C228.307 192.975 212.021 184.208 196.579 173.83C195.571 174.97 195.735 175.697 196.396 176.495C197.862 178.264 199.891 179.26 201.765 180.451C212.175 187.067 223.225 192.456 234.567 197.249C238.623 198.963 242.827 200.336 247.223 200.961C247.997 201.072 248.439 201.538 248.836 202.14C252.898 208.314 256.955 214.492 261.038 220.653C266.245 228.51 271.479 236.349 276.689 244.204C277.68 245.698 278.449 247.311 279.047 249.001C279.915 251.457 278.793 253.657 276.31 254.524C273.122 255.636 270.26 254.493 267.461 253.218C263.355 251.347 259.963 248.393 256.456 245.639C247.943 238.953 241.011 230.846 235.055 221.838C232.267 217.62 229.217 213.576 226.275 209.461C225.969 209.033 225.73 208.496 225.039 208.411C224.331 209.041 224.871 209.706 225.094 210.272C226.414 213.618 228.334 216.62 230.456 219.509C232.57 222.387 234.654 225.288 236.712 228.206C237.12 228.784 237.583 229.389 237.673 230.5C235.77 228.921 234.071 227.544 232.408 226.126C225.139 219.93 217.463 214.259 209.069 209.728C199.1 204.348 187.554 204.979 179.61 215.206C177.158 218.362 175.448 221.697 175.799 225.926C172.372 225.351 170.084 227.231 167.735 229.131C163.217 232.785 158.045 235.297 152.649 237.356C147.123 239.465 141.402 240.898 135.556 241.718C130.261 242.461 124.947 242.745 119.568 242.334C108.982 241.527 99.4883 237.804 90.864 231.855C78.5384 223.352 69.5876 212.23 65.9741 197.451C64.4384 191.171 63.3908 184.743 63.6365 178.203C63.7444 175.338 63.3083 172.454 63.89 169.607C64.2233 167.974 64.9825 167.373 66.6374 167.289C67.7841 167.231 68.9541 167.223 70.0207 167.625C71.8858 168.327 73.6 167.946 75.3344 167.224C75.9986 166.948 76.6533 166.5 77.5414 166.795C77.7103 168.333 77.2224 169.81 76.8781 171.264C73.7763 184.367 77.3654 195.539 86.2357 205.416C91.743 211.548 98.2115 216.375 105.151 220.673C106.082 221.25 107.078 221.668 108.145 221.95C108.763 221.426 108.804 220.707 108.894 220.046C110.214 210.306 116.189 203.964 125.786 202.242C127.291 201.972 128.861 201.978 130.375 202.292C132.894 202.815 134.969 202.302 136.493 200.076C137.955 197.938 139.368 195.811 139.734 193.147C140.023 191.045 140.003 190.787 138.088 189.927C134.279 188.216 130.555 186.364 127.227 183.803C120.56 178.673 115.429 172.231 111.078 165.093C107.393 159.048 104.237 152.77 102.694 145.822C100.522 136.048 100.384 126.31 103.453 116.638C104.3 113.967 105.171 111.273 105.174 108.383C105.177 105.484 103.746 103.635 101.316 102.367C97.2026 100.22 92.7512 99.9921 88.2692 100.25C84.4215 100.472 80.5783 100.837 76.7858 101.625C75.7558 101.84 74.8968 102.331 73.9622 102.865C74.867 93.6076 82.7533 84.4797 91.3046 80.962C91.0165 82.3515 90.7476 83.6144 90.495 84.8806C90.2803 85.957 90.2022 87.0477 90.3643 88.1346C90.5894 89.6429 91.8672 90.9707 93.3565 91.0014C95.4075 91.0437 97.2273 90.2851 98.7634 88.9048C98.9894 88.7017 99.1369 88.4372 98.9564 87.9943C98.2061 87.689 97.3831 87.983 96.5837 88.0589C94.9378 88.2159 94.6512 88.0318 94.6277 86.3624C94.5899 83.6829 95.3187 81.1667 96.4747 78.7821C100.156 71.1892 106.5 67.0955 114.575 65.7901C124.318 64.2147 133.312 66.4745 141.579 71.9067C149.331 77.0012 154.771 84.0948 159.496 91.8792C162.246 96.4104 164.751 101.112 168.348 105.078C168.469 105.211 168.517 105.409 168.611 105.603C163.046 105.5 157.663 106.084 152.649 108.491C142.445 113.391 137.781 121.592 138.375 132.973ZM146.377 215.58C146.267 217.588 145.213 218.889 143.37 219.602C141.283 220.41 139.097 220.868 136.946 221.45C136.219 221.647 135.529 222.123 134.545 221.876C135.68 220.461 136.463 218.983 137.048 217.417C137.346 216.621 138.142 215.681 137.509 214.937C136.778 214.077 135.533 214.128 134.431 214.261C134.05 214.307 133.678 214.489 133.321 214.652C130.708 215.841 128.739 217.759 127.246 220.171C126.542 221.308 125.98 222.53 125.295 223.679C124.579 224.879 123.932 224.931 122.945 223.949C121.911 222.921 121.626 221.627 121.768 220.248C122.13 216.745 123.256 213.582 126.019 211.196C126.763 210.554 127.492 209.895 128.291 209.188C127.245 208.528 126.223 208.395 125.124 208.806C123.002 209.601 121.363 210.939 120.221 212.926C118.542 215.847 117.551 219.02 116.938 222.285C116.515 224.534 116.689 226.824 117.729 228.973C118.678 230.935 119.889 231.511 121.955 230.748C122.781 230.442 123.543 229.951 124.312 229.506C126.869 228.027 128.134 228.54 129.09 231.365C129.522 232.642 129.294 233.983 129.544 235.266C130.425 235.384 130.966 234.98 131.375 234.381C132.642 232.529 133.065 230.512 132.559 228.301C132.422 227.702 131.957 227.149 132.229 226.417C134.331 226.093 136.389 225.573 138.433 224.996C145.578 222.981 152.704 220.892 159.879 218.992C163.184 218.118 166.576 217.653 169.972 218.836C171.558 219.388 172.67 220.595 174.058 221.741C174.934 219.266 174.855 216.995 174.482 214.677C173.118 206.218 168.522 200.241 160.707 196.793C157.802 195.511 154.72 195.018 151.562 195.755C146.719 196.885 143.925 200.25 142.015 204.588C141.43 205.916 141.695 206.738 142.955 207.513C145.858 209.3 146.609 212.13 146.377 215.58ZM165.729 140.011C164.892 139.135 164.189 138.105 162.901 137.496C162.741 138.113 162.483 138.572 161.924 138.776C155.849 140.993 149.188 140.12 146.371 132.436C145.913 131.185 145.624 129.872 145.254 128.588C145.136 128.175 145.093 127.709 144.58 127.546C142.519 131.599 143.759 137.415 147.48 139.812C151.961 142.697 156.846 144.196 162.116 141.68C163.028 141.245 163.731 141.386 164.3 142.226C165.412 143.867 166.972 144.987 168.629 146.019C170.058 146.909 171.495 147.813 172.806 148.864C176.849 152.107 181.454 154.263 186.27 156.031C188.937 157.01 191.715 157.517 194.534 157.732C197.695 157.972 200.422 156.329 200.592 153.931C200.841 150.403 200.242 146.923 199.492 143.479C199.395 143.035 199.242 142.587 198.698 142.527C198.19 142.471 197.858 142.812 197.594 143.175C196.862 144.186 196.61 145.35 196.796 146.556C197.104 148.558 197.462 150.554 197.882 152.535C198.146 153.776 197.675 154.404 196.511 154.703C195.435 154.979 194.352 155.069 193.264 154.893C191.8 154.656 190.338 154.394 188.889 154.08C183.522 152.916 178.886 150.29 174.597 146.934C177.327 144.362 178.14 140.482 181.122 138.231C180.339 137.347 179.623 137.336 178.731 137.75C177.335 138.399 176.209 139.287 175.428 140.63C174.757 141.786 174.018 142.903 173.312 144.039C172.838 144.801 172.251 144.885 171.414 144.564C169.095 143.673 167.493 141.916 165.729 140.011ZM252.422 225.186C257.932 232.54 262.968 240.281 269.733 246.607C269.895 246.489 270.057 246.371 270.219 246.253C260.449 232.238 250.679 218.223 240.682 203.884C240.529 205.515 240.621 205.819 241.754 208.114C244.709 214.097 248.573 219.512 252.422 225.186ZM220.051 194.737C219.685 194.583 219.316 194.439 218.954 194.275C213.082 191.614 207.431 188.52 201.744 185.495C199.472 184.287 198.803 184.098 197.173 184.264C208.9 192.909 221.013 199.97 235.334 202.279C235.444 202.041 235.554 201.803 235.664 201.565C230.528 199.321 225.392 197.077 220.051 194.737ZM120.289 79.6643C118.985 79.1943 117.705 78.6418 116.374 78.2703C113.251 77.3985 110.756 78.5947 108.674 80.8563C108.097 81.4833 107.747 82.2079 108.192 83.1554C109.395 85.716 112.425 87.0641 115.154 86.3299C118.178 85.5165 119.411 82.9615 120.931 80.6677C121.247 80.1903 120.822 79.9657 120.289 79.6643ZM110.167 229.707C110.096 229.683 110.026 229.651 109.954 229.643C109.937 229.641 109.889 229.726 109.893 229.768C110.105 232.372 111.06 234.669 112.867 236.557C114.458 238.22 116.403 239.142 118.752 238.761C120.197 238.526 121.481 237.923 122.172 236.433C120.076 236.82 118.129 236.653 116.158 235.974C113.1 234.921 111.656 232.405 110.167 229.707ZM136.602 165.071C136.918 165.885 136.789 166.733 136.809 167.571C136.819 167.955 136.437 168.466 136.806 168.696C138.329 169.649 139.562 170.968 141.013 172.247C141.099 171.829 141.166 171.684 141.151 171.548C140.843 168.644 138.661 166.784 137.189 164.534C136.957 164.179 136.71 164.585 136.602 165.071ZM108.46 120.198C107.562 122.213 108.193 123.957 109.401 125.854C110.623 123.22 110.449 120.891 109.261 118.535C108.566 118.876 108.58 119.446 108.46 120.198ZM122.588 136.837C121.823 139.545 122.73 141.374 125.443 142.15C125.909 139.763 124.891 137.993 122.588 136.837ZM118.784 120.28C119.356 120.61 119.678 121.368 120.632 121.297C120.788 120.605 121.035 119.906 121.087 119.193C121.164 118.153 119.664 116.651 118.99 116.992C118.187 117.398 117.949 119.472 118.784 120.28ZM151.787 168.036C151.078 166.522 150.494 164.929 149.236 163.584C148.852 164.432 148.593 166.194 148.707 166.663C148.924 167.556 150.864 168.531 151.787 168.036ZM133.449 139.287C133.253 137.458 132.524 135.844 131.499 134.306C131.133 135.37 130.775 136.412 130.807 137.442C130.835 138.321 132.037 138.049 132.538 138.579C132.773 138.828 133.045 139.042 133.449 139.287ZM123.879 166.758C123.753 167.928 124.268 168.75 125.279 169.28C125.645 169.472 126.056 169.477 126.394 169.211C126.69 168.979 126.808 168.618 126.621 168.285C125.94 167.075 125.181 165.93 123.891 165.259C123.529 165.795 123.839 166.154 123.879 166.758ZM129.053 119.5C129.595 119.769 130.281 120.135 130.535 119.325C130.758 118.617 130.838 117.741 130.051 117.17C129.57 116.822 129.058 116.655 128.574 117.135C127.865 117.836 128.274 118.487 128.714 119.122C128.771 119.203 128.837 119.278 129.053 119.5ZM110.922 145.367C110.924 145.613 110.919 145.859 110.928 146.104C110.946 146.59 111.105 147.053 111.662 147.007C112.359 146.951 112.294 146.35 112.222 145.87C112.165 145.492 112.078 145.047 111.838 144.781C111.31 144.191 111.007 144.477 110.922 145.367Z" fill="#273132"/>
<path d="M78.5872 68.1598C66.9671 78.7981 57.983 91.226 51.6766 105.536C47.4045 115.23 44.2488 125.284 42.714 135.808C41.3927 144.869 41.1908 153.99 41.5622 163.103C41.9899 173.605 43.8577 183.911 46.4189 194.113C49.2801 205.512 53.7619 216.194 59.8011 226.247C64.9721 234.854 71.7277 241.987 79.5436 248.286C88.8652 255.797 99.0672 261.723 110.076 266.264C116.397 268.871 123.031 270.572 129.767 271.805C130.153 271.876 130.603 271.945 130.949 271.817C132.867 271.103 133.672 272.385 134.74 273.614C139.719 279.339 145.654 283.811 152.68 286.767C153.137 286.959 153.595 287.15 154.048 287.354C154.127 287.389 154.177 287.487 154.37 287.697C153.053 288.336 151.669 288.266 150.354 288.428C144.946 289.091 139.586 288.365 134.208 287.882C125.794 287.126 117.547 285.574 109.532 282.918C102.59 280.618 96.0386 277.46 89.7677 273.675C79.7152 267.607 70.7025 260.243 62.6685 251.738C54.9804 243.599 48.4274 234.569 42.8313 224.849C38.0058 216.468 34.2636 207.658 31.7125 198.322C29.9114 191.73 28.2513 185.111 27.3995 178.328C26.9128 174.452 26.6561 170.542 26.4259 166.641C26.1632 162.188 25.9164 157.728 25.8965 153.27C25.8713 147.63 26.4848 142.019 26.9077 136.395C27.4457 129.243 28.896 122.286 30.631 115.39C33.639 103.431 38.379 92.1913 45.3797 81.9649C52.6155 71.3953 61.4739 62.3803 71.5162 54.4851C80.5682 47.3685 90.2952 41.3746 100.88 36.8046C107.243 34.0573 113.923 32.5001 120.749 31.4618C130.714 29.9454 140.345 31.32 149.829 34.5204C159.684 37.8462 168.579 42.8692 176.526 49.505C182.722 54.6778 187.15 61.2431 190.373 68.6226C190.84 69.6919 191.232 70.7943 191.73 72.0646C185.101 71.4927 178.691 71.555 172.365 73.0127C171.211 70.9024 170.204 68.8573 169.015 66.9246C163.744 58.3575 156.508 52.1249 146.995 48.669C143.527 47.409 139.89 46.928 136.243 46.5819C127.796 45.7801 119.557 46.9426 111.463 49.3332C104.763 51.3118 98.5397 54.3415 92.5183 57.8529C87.5219 60.7671 83.0618 64.3768 78.5872 68.1598Z" fill="#273132"/>
<path d="M262.444 211.257C266.256 201.024 269.469 190.724 271.701 180.148C273.018 173.909 273.862 167.592 274.306 161.212C274.71 155.4 274.53 149.61 274.182 143.824C273.466 131.941 270.042 120.774 264.912 110.085C260.631 101.164 255.86 92.5157 249.764 84.7075C243.642 76.8669 236.69 69.7896 228.902 63.5627C222.129 58.1478 214.8 53.6014 206.998 49.8619C198.875 45.9692 190.345 43.2653 181.439 41.782C177.733 41.1646 174.036 40.5194 170.28 40.2764C169.325 40.2147 168.493 39.8251 167.706 39.2375C163.418 36.0347 158.7 33.6569 153.619 31.9815C151.134 31.1624 148.669 30.2841 146.153 29.4181C146.323 28.5129 147.068 28.5212 147.633 28.3722C153.478 26.8312 159.385 25.8076 165.45 25.4586C178.379 24.7146 190.825 26.9325 202.827 31.4922C216.885 36.8329 229.649 44.4707 241.264 54.0696C251.771 62.752 261.02 72.5736 268.772 83.7663C273.754 90.9588 277.852 98.6547 281.143 106.783C284.634 115.403 287.054 124.29 288.471 133.482C289.393 139.464 289.784 145.46 289.95 151.504C290.388 167.503 287.956 183.068 283.094 198.264C280.171 207.396 276.41 216.188 271.507 224.459C271.069 225.198 270.909 226.024 270.643 226.843C269.868 226.921 269.653 226.252 269.319 225.833C267.274 223.271 265.447 220.555 263.668 217.804C262.974 216.731 262.342 215.562 260.9 215.09C261.416 213.811 261.909 212.588 262.444 211.257Z" fill="#273132"/>
<path d="M207.874 281.499C202.493 283.575 197.156 285.427 191.599 286.513C184.426 287.915 177.217 288.509 169.894 287.641C164.743 287.03 159.678 286.164 154.974 283.949C139.286 276.561 129.462 264.38 125.496 247.489C125.417 247.154 125.348 246.813 125.318 246.47C125.302 246.285 125.378 246.092 125.422 245.849C130.827 245.966 136.21 246.22 141.586 244.501C142.352 246.215 143.267 247.961 143.931 249.797C147.419 259.455 154.159 266.15 163.036 270.906C166.096 272.545 169.465 273.118 172.856 273.637C179.05 274.586 184.836 272.669 190.635 271.094C203.101 267.71 214.546 262.072 225.214 254.838C231.669 250.46 237.599 245.421 243.476 240.112C247.121 243.78 250.627 247.667 254.947 250.742C240.799 263.184 225.782 274.441 207.874 281.499Z" fill="#273132"/>
<path d="M97.1985 161.757C97.4368 169.509 96.9626 177.044 95.1517 184.473C93.6672 190.562 91.3601 196.351 88.9638 202.115C88.9329 202.189 88.8078 202.225 88.5754 202.379C87.6134 201.054 86.6284 199.729 85.6777 198.381C82.1392 193.364 80.1028 187.912 79.9264 181.65C79.8118 177.586 80.4584 173.669 80.9618 169.708C81.3966 166.285 81.1703 162.884 80.8587 159.488C80.4882 155.447 79.8076 151.433 78.5018 147.584C75.5462 138.874 71.6602 130.65 65.0523 124.033C61.5314 120.508 57.1822 119.45 52.3186 120.359C51.6955 120.476 51.059 120.522 50.0436 120.649C52.3787 112.813 55.3266 105.53 58.9487 98.4724C60.0976 98.7375 60.6906 99.6135 61.5109 100.131C71.4266 106.394 79.152 114.796 85.375 124.659C90.8099 133.274 94.3002 142.65 96.2201 152.616C96.7902 155.574 97.0633 158.592 97.1985 161.757Z" fill="#273132"/>
<path d="M248.191 162.396C249.224 161.615 250.112 160.783 251.147 160.224C252.154 159.68 252.497 158.889 252.683 157.875C254.819 146.186 253.891 134.801 249.329 123.771C248.836 122.58 248.395 121.367 247.875 120.189C247.436 119.195 246.907 118.246 245.708 117.801C248.169 114.822 251.226 113.028 254.859 112.21C256.588 111.82 257.705 112.975 258.629 114.126C263.119 119.718 266.564 125.923 268.388 132.859C270.032 139.109 269.767 145.435 267.773 151.624C267.415 152.736 266.83 153.775 266.303 154.954C267.193 155.172 267.997 155.082 268.818 154.917C270.616 154.557 270.888 154.734 270.837 156.507C270.706 161.059 270.241 165.584 269.505 170.077C269.236 171.713 269.194 173.407 268.555 174.841C256.928 171.256 249.379 176.751 243.272 185.985C240.584 182.341 238.277 178.665 236.155 174.687C237.59 175.704 238.088 174.879 238.654 173.798C240.986 169.347 244.165 165.583 248.191 162.396Z" fill="#273132"/>
<path d="M192.442 91.8062C187.68 91.092 183.02 91.0443 178.368 91.3669C174.766 91.6168 171.176 92.0755 167.732 93.2821C166.897 93.5749 166.045 93.8212 164.943 94.1706C162.818 90.3396 160.646 86.4219 158.419 82.4057C158.929 81.5556 159.867 81.1116 160.821 80.7348C167.155 78.2313 173.657 76.4555 180.476 75.8113C193.671 74.5645 206.331 76.496 218.433 81.9092C223.938 84.3715 229.023 87.5487 233.723 91.3279C234.717 92.127 235.608 93.053 236.56 93.9329C234.895 95.9309 233.312 97.8952 231.656 99.7967C230.084 101.603 228.841 103.635 227.479 105.586C227.175 106.022 226.883 106.644 226.218 106.075C223.495 103.745 220.413 101.939 217.348 100.139C210.349 96.0274 202.746 93.5445 194.775 92.1428C194.045 92.0144 193.308 91.9268 192.442 91.8062Z" fill="#273132"/>
<path d="M258.73 106.544C251.587 108.122 245.958 111.66 242.094 117.924C236.287 127.34 233.217 137.641 231.814 148.523C231.123 153.876 230.464 159.232 230.654 164.644C230.712 166.31 230.928 167.972 231.073 169.645C230.43 169.719 230.283 169.227 230.099 168.859C227.096 162.841 223.002 157.514 219.358 151.903C218.547 150.655 217.784 149.373 216.922 148.162C216.046 146.933 216.033 145.54 216.197 144.194C217.298 135.128 219.838 126.451 223.686 118.187C227.838 109.269 233.939 101.711 240.746 94.712C243.053 92.3406 245.697 90.3134 248.479 88.4625C251.846 93.6344 254.954 98.8671 257.944 104.169C258.346 104.882 258.849 105.592 258.73 106.544Z" fill="#273132"/>
<path d="M58.6452 124.392C61.924 125.552 65.36 128.802 66.8671 132.101C61.3911 133.397 60.0034 137.919 59.2171 142.492C58.1001 148.986 58.7224 155.411 61.5207 161.507C61.8504 162.225 62.3478 162.824 62.8074 163.448C60.7233 164.752 60.0731 166.876 59.7806 168.907C59.053 173.96 58.8915 179.057 59.268 184.173C59.523 187.641 60.2432 191.02 60.8246 194.428C60.8648 194.663 60.83 194.911 60.83 195.364C58.1636 193.639 55.9217 191.687 53.9829 189.403C49.1655 183.728 46.9027 177.039 46.0267 169.731C45.3837 164.365 44.8571 158.999 45.0009 153.6C45.224 145.235 45.879 136.908 47.6914 128.708C47.9675 127.459 48.0444 126.165 48.2258 124.801C51.6686 124.3 55.0606 123.653 58.6452 124.392Z" fill="#273132"/>
<path d="M177.081 243.55C177.076 244.045 176.944 244.449 177.198 244.808C179.452 244.304 179.849 242.187 178.8 236.19C193.996 235.671 205.871 227.955 216.85 218.534C219.42 222.111 223.501 223.486 226.894 225.991C222.874 231.357 218.521 236.423 212.954 240.386C205.995 245.339 198.159 247.823 189.837 249.13C184.126 250.026 178.477 249.917 172.944 248.19C167.008 246.337 165.053 241.84 165.53 236.36C165.608 235.462 166.366 235.006 166.954 234.548C168.981 232.969 171.087 231.491 173.393 229.806C174.36 234.559 176.926 238.653 177.081 243.55Z" fill="#273132"/>
<path d="M186.897 253.306C189.491 253.068 191.887 252.489 194.797 251.814C193.62 254.072 192.695 255.995 191.638 257.843C189.297 261.935 186.464 265.704 183.798 269.583C183.567 269.92 183.331 270.217 182.884 270.265C176.731 270.929 170.723 270.369 164.959 268.012C163.274 267.323 163.211 267.118 164.446 265.753C167.928 261.906 170.817 257.662 173.237 253.087C173.526 252.541 173.841 252.244 174.522 252.463C178.528 253.753 182.654 253.428 186.897 253.306Z" fill="#273132"/>
<path d="M265.414 189.385C264.237 191.896 262.823 194.057 260.596 195.643C258.415 197.195 255.816 197.691 253.495 198.529C253.216 199.285 254.056 199.607 253.759 200.3C252.953 199.965 252.346 199.429 251.876 198.734C249.902 195.82 247.95 192.891 245.96 189.988C245.643 189.525 245.703 189.161 245.987 188.774C247.626 186.542 248.823 183.996 250.877 182.058C254.499 178.643 258.646 176.88 263.715 177.653C264.983 177.847 266.267 177.922 267.512 178.267C268.039 178.414 268.462 178.586 268.249 179.275C267.231 182.585 266.778 186.054 265.414 189.385Z" fill="#273132"/>
<path d="M136.344 65.0282C132.479 62.9873 128.328 62.2227 123.96 61.2931C125.011 59.7061 126.142 58.496 127.324 57.3436C129.349 55.3688 130.97 53.0194 133.108 51.1525C133.182 51.0884 133.297 50.9994 133.292 50.9288C133.128 48.5037 134.82 49.5494 135.829 49.6611C141.957 50.3387 147.592 52.5541 153.29 55.3864C148.571 58.8346 144.056 62.2629 140.615 67.0741C139.167 66.6446 137.887 65.6745 136.344 65.0282Z" fill="#273132"/>
<path d="M182.294 94.9122C185.353 94.9116 188.264 94.9116 191.263 94.9116C189.97 102.087 189.74 109.099 190.777 116.15C190.654 116.197 190.531 116.244 190.407 116.291C189.301 115.354 188.197 114.416 187.089 113.481C183.246 110.237 178.859 107.99 174.087 106.481C173.38 106.257 173.037 106.007 172.93 105.215C172.576 102.599 172.692 99.976 172.634 97.354C172.612 96.3118 172.96 95.8898 174.039 95.7399C176.734 95.3661 179.418 94.9363 182.294 94.9122Z" fill="#273132"/>
<path d="M70.0311 215.911C73.843 222.614 78.8654 228.027 85.5891 232.146C82.1188 233.563 78.8922 234.901 75.6474 236.194C74.6216 236.603 73.6384 237.001 73.3116 238.447C68.1966 232.249 63.2461 226.255 60.3206 218.791C63.4224 217.624 66.2886 216.302 68.8114 214.452C69.5918 214.668 69.6448 215.356 70.0311 215.911Z" fill="#273132"/>
<path d="M199.498 130.818C200.779 132.258 201.985 133.621 203.303 135.111C201.445 136.091 199.673 136.13 197.873 135.719C196.756 135.464 195.694 134.985 194.773 134.312C190.174 130.953 186.964 126.619 185.614 121.014C185.402 120.133 185.425 119.256 185.741 118.115C191.325 121.34 195.223 126.209 199.498 130.818Z" fill="#273132"/>
<path d="M248.227 135.067C245.129 134.04 242.078 133.206 239.147 131.829C240.557 128.003 242.545 124.548 244.588 121.01C245.251 121.76 245.298 122.62 245.552 123.385C246.704 126.856 247.843 130.332 248.924 133.825C249.058 134.258 249.918 135.335 248.227 135.067Z" fill="#273132"/>
<path d="M115.682 80.3872C115.978 80.5194 116.269 80.5921 116.298 80.7237C116.618 82.1555 115.443 82.7899 114.654 83.5798C114.064 84.1702 113.282 84.4728 112.574 83.6716C111.929 82.9424 110.876 82.1942 111.181 81.211C111.52 80.1188 112.794 80.3222 113.773 80.3175C114.367 80.3145 114.961 80.3416 115.682 80.3872Z" fill="#273132"/>
</svg>
