<svg width="160" height="160" viewBox="0 0 160 160" fill="none" xmlns="http://www.w3.org/2000/svg">
<path d="M124.981 15.9566C134.873 15.9421 144.764 15.9273 154.656 15.9185C154.743 15.9184 154.829 15.9992 155.104 16.1356C153.662 18.6536 152.234 21.165 150.789 23.6672C136.045 49.2141 121.298 74.7597 106.551 100.305C98.254 114.678 89.9572 129.05 81.6567 143.42C80.5558 145.326 80.0555 145.318 78.9483 143.399C59.1878 109.156 39.429 74.9109 19.6673 40.6679C15.1951 32.9186 10.7125 25.1753 6.23749 17.4275C6.00813 17.0304 5.80573 16.6177 5.42676 15.903C15.5547 15.903 25.4531 15.903 35.5354 16.0291C36.5743 17.6415 37.4281 19.1285 38.2845 20.614C44.6432 31.6439 50.9966 42.6768 57.3631 53.7021C63.8074 64.8622 70.2637 76.0154 76.7172 87.1702C77.8693 89.1617 79.0332 91.1465 80.2785 93.2835C80.6921 92.6829 80.9513 92.357 81.157 92.0002C84.7915 85.6984 88.4172 79.3915 92.0494 73.0884C97.7055 63.273 103.366 53.4598 109.023 43.6452C114.343 34.416 119.662 25.1861 124.981 15.9566Z" fill="#41B883"/>
<path d="M124.839 15.9281C119.662 25.1861 114.343 34.416 109.023 43.6452C103.366 53.4598 97.7055 63.273 92.0494 73.0884C88.4173 79.3916 84.7915 85.6984 81.157 92.0002C80.9513 92.357 80.6921 92.6829 80.2785 93.2835C79.0332 91.1465 77.8693 89.1617 76.7172 87.1702C70.2637 76.0154 63.8074 64.8623 57.3631 53.7022C50.9966 42.6768 44.6432 31.6439 38.2845 20.614C37.4281 19.1285 36.5743 17.6415 35.681 16.0557C44.6413 15.933 53.64 15.8922 62.6384 15.9342C63.1304 15.9365 63.7973 16.5258 64.083 17.0164C69.2322 25.8602 74.3345 34.7312 79.4502 43.5945C79.6783 43.9896 79.938 44.3664 80.3234 44.9726C80.7404 44.2668 81.0735 43.7139 81.3963 43.1551C86.4123 34.4741 91.4401 25.7998 96.4217 17.0991C96.92 16.2289 97.4314 15.854 98.475 15.86C107.215 15.9103 115.956 15.8951 124.839 15.9281Z" fill="#34495E"/>
</svg>
