<svg width="160" height="160" viewBox="0 0 160 160" fill="none" xmlns="http://www.w3.org/2000/svg">
<path d="M62.5 155.742C51.668 155.728 40.9857 155.942 30.3181 155.639C18.055 155.291 7.81474 146.351 5.36798 134.317C4.97687 132.394 4.76852 130.398 4.76635 128.436C4.73029 95.9387 4.73015 63.4417 4.74616 30.9447C4.75227 18.5393 14.1516 7.17724 26.2455 4.89811C26.9533 4.76473 27.6909 4.74727 28.4147 4.74712C62.2657 4.74011 96.117 4.78953 129.968 4.69797C136.343 4.68073 141.645 7.00157 146.231 11.1036C152.331 16.5592 155.377 23.5162 155.385 31.6993C155.417 63.9359 155.433 96.1726 155.382 128.409C155.36 142.087 146.129 153.053 132.785 155.422C131.158 155.71 129.467 155.727 127.806 155.729C106.09 155.748 84.3729 155.742 62.5 155.742ZM38.6803 61.4062C38.6803 77.4439 38.6973 93.4816 38.6512 109.519C38.6471 110.944 39.033 111.403 40.4839 111.358C43.8132 111.255 47.1503 111.251 50.4793 111.36C51.9813 111.409 52.309 110.854 52.2924 109.47C52.2263 103.952 52.2651 98.4317 52.2651 92.9122C52.2651 91.8831 52.2651 90.8541 52.2651 89.6855C53.2455 89.6855 54.0662 89.7198 54.8833 89.6797C58.878 89.4837 62.9097 89.5415 66.857 88.9947C72.7582 88.1771 77.8282 85.58 81.6218 80.7876C84.6586 76.9513 85.8629 72.4978 86.1349 67.7349C86.7133 57.6092 82.078 48.7376 71.8095 44.937C67.7951 43.4512 63.6252 42.9287 59.4024 42.9245C52.9996 42.9181 46.5967 43.129 40.1934 43.1661C38.8842 43.1737 38.6522 43.7047 38.6613 44.848C38.7044 50.2629 38.6804 55.6784 38.6803 61.4062ZM94.2958 81.764C95.534 84.1216 97.2285 86.1545 99.5376 87.4158C103.082 89.3516 106.803 90.9615 110.408 92.7902C111.876 93.535 113.404 94.3065 114.607 95.3947C116.273 96.9007 115.802 99.2061 113.728 100.102C112.611 100.585 111.334 100.858 110.115 100.913C104.489 101.168 99.1731 99.9645 94.2181 97.2436C93.8377 97.0347 93.4077 96.916 92.7441 96.654C92.7441 100.457 92.8326 103.986 92.7051 107.507C92.6452 109.16 93.2294 110.096 94.7751 110.44C98.261 111.216 101.723 112.265 105.254 112.633C110.467 113.177 115.639 112.671 120.494 110.357C130.955 105.371 131.941 91.192 124.161 85.4154C120.996 83.0649 117.185 81.5805 113.657 79.7231C111.548 78.6132 109.363 77.6376 107.322 76.4179C106.268 75.7878 105.704 74.6446 106.032 73.3043C106.348 72.0153 107.213 71.2301 108.48 70.9546C109.44 70.746 110.425 70.5707 111.403 70.5434C115.989 70.4152 120.407 71.1804 124.586 73.1533C126.113 73.8744 126.453 73.6654 126.464 72.0266C126.482 69.0077 126.428 65.9877 126.488 62.9698C126.513 61.6708 126.019 60.9686 124.768 60.597C117.939 58.5687 111.019 58.0741 104.169 60.1066C94.5385 62.9642 90.1914 72.5595 94.2958 81.764Z" fill="#02213B"/>
<path d="M38.6802 61.25C38.6803 55.6784 38.7044 50.2629 38.6613 44.848C38.6522 43.7047 38.8842 43.1737 40.1934 43.1661C46.5967 43.129 52.9995 42.9181 59.4024 42.9245C63.6252 42.9287 67.7951 43.4512 71.8095 44.937C82.078 48.7376 86.7133 57.6092 86.1349 67.7349C85.8628 72.4978 84.6586 76.9513 81.6218 80.7876C77.8282 85.58 72.7582 88.1771 66.857 88.9947C62.9097 89.5415 58.878 89.4837 54.8832 89.6797C54.0662 89.7198 53.2455 89.6855 52.2651 89.6855C52.2651 90.8541 52.265 91.8831 52.2651 92.9122C52.2651 98.4316 52.2263 103.952 52.2924 109.47C52.309 110.854 51.9813 111.409 50.4792 111.36C47.1503 111.251 43.8131 111.255 40.4839 111.358C39.033 111.403 38.6471 110.944 38.6512 109.519C38.6972 93.4816 38.6803 77.4439 38.6802 61.25ZM65.986 56.6061C62.0222 55.0648 57.8825 55.7124 53.8002 55.5967C52.5548 55.5614 52.2263 56.008 52.2372 57.2202C52.2936 63.5092 52.2614 69.7989 52.2679 76.0883C52.2683 76.5333 52.3318 76.9782 52.3698 77.4724C56.8767 77.5439 61.2327 77.8282 65.4625 76.3088C69.9361 74.7018 72.2764 71.5508 72.4538 66.6777C72.6252 61.9712 70.4954 58.5661 65.986 56.6061Z" fill="#41AFFE"/>
<path d="M94.2346 81.6644C90.1913 72.5595 94.5384 62.9642 104.169 60.1066C111.019 58.0741 117.939 58.5687 124.768 60.597C126.019 60.9686 126.513 61.6708 126.488 62.9698C126.428 65.9877 126.482 69.0077 126.463 72.0266C126.453 73.6654 126.113 73.8744 124.586 73.1533C120.407 71.1804 115.989 70.4151 111.403 70.5434C110.424 70.5707 109.44 70.746 108.48 70.9545C107.213 71.2301 106.348 72.0153 106.032 73.3042C105.704 74.6446 106.267 75.7878 107.322 76.4179C109.363 77.6376 111.548 78.6132 113.657 79.7231C117.185 81.5805 120.996 83.0649 124.161 85.4154C131.941 91.192 130.955 105.371 120.494 110.357C115.639 112.671 110.467 113.177 105.254 112.633C101.723 112.265 98.2609 111.216 94.7751 110.44C93.2294 110.096 92.6451 109.16 92.705 107.507C92.8326 103.986 92.744 100.457 92.744 96.654C93.4077 96.916 93.8376 97.0347 94.2181 97.2435C99.1731 99.9645 104.489 101.168 110.115 100.913C111.334 100.858 112.611 100.585 113.728 100.102C115.802 99.2061 116.273 96.9007 114.607 95.3947C113.404 94.3065 111.876 93.535 110.408 92.7902C106.803 90.9615 103.082 89.3516 99.5376 87.4158C97.2284 86.1545 95.534 84.1216 94.2346 81.6644Z" fill="#41AFFE"/>
<path d="M66.0983 56.6511C70.4954 58.5661 72.6252 61.9712 72.4539 66.6778C72.2764 71.5508 69.9361 74.7018 65.4625 76.3088C61.2327 77.8283 56.8767 77.544 52.3698 77.4724C52.3318 76.9782 52.2683 76.5333 52.2679 76.0883C52.2614 69.7989 52.2936 63.5092 52.2372 57.2203C52.2263 56.008 52.5548 55.5614 53.8002 55.5967C57.8825 55.7124 62.0222 55.0648 66.0983 56.6511Z" fill="#03223D"/>
</svg>
