<svg width="244" height="244" viewBox="0 0 244 244" fill="none" xmlns="http://www.w3.org/2000/svg">
<path d="M110.7 106.379C112.111 116.103 117.295 123.397 124.685 129.356C128.232 132.215 131.985 134.692 136.403 136.013C136.731 136.111 136.998 136.247 137.124 136.687C138.296 140.783 140.996 143.626 144.687 145.556C147.39 146.969 150.003 146.501 152.373 144.713C154.662 142.986 155.47 140.578 155.246 137.786C155.136 136.403 154.942 135.027 154.847 133.644C154.773 132.568 153.989 132.816 153.362 132.769C152.625 132.713 152.528 133.194 152.555 133.776C152.619 135.16 152.933 136.525 152.828 137.924C152.741 139.08 152.589 140.224 152.053 141.256C150.571 144.108 147.336 144.785 144.53 142.86C143.068 141.857 141.963 140.502 140.885 139.124C140.333 138.419 139.798 137.7 139.172 136.877C140.624 136.573 141.967 136.515 143.209 135.982C145.62 134.946 146.209 134.001 145.703 131.483C145.423 130.088 144.992 128.721 144.583 127.355C144.409 126.776 144.065 126.122 143.377 126.265C142.738 126.397 142.621 127.089 142.571 127.714C142.482 128.835 142.96 129.801 143.356 130.794C144.289 133.126 143.997 133.608 141.561 134.026C139.609 134.361 137.791 133.858 135.98 133.268C132.46 132.121 129.678 129.892 127.007 127.136C129.598 126.235 130.947 124.37 131.534 121.929C131.992 120.025 131.976 118.072 131.894 116.128C131.882 115.829 131.741 115.498 131.563 115.251C131.196 114.742 130.764 114.105 130.056 114.341C129.36 114.573 129.534 115.279 129.552 115.887C129.604 117.705 129.701 119.539 129.414 121.335C129.119 123.186 128.242 124.701 126.326 125.376C125.998 125.492 125.701 125.696 125.295 125.909C122.976 124.286 121.228 122.041 119.436 119.823C115.812 115.337 114.029 110.126 113.673 104.474C113.319 98.8355 115.42 94.2081 120.341 91.1504C128.349 86.1749 136.52 86.778 144.755 90.5798C145.271 90.8176 145.461 91.1044 145.392 91.6744C144.826 96.3826 146.376 100.511 149.048 104.257C151.217 107.3 154.127 109.522 157.611 110.848C159.791 111.677 162.084 112.028 164.168 110.251C166.565 113.881 168.937 117.48 171.315 121.075C174.293 125.576 177.261 130.084 180.272 134.563C180.682 135.172 180.875 135.644 180.346 136.239C180.191 136.414 180.097 136.644 179.978 136.85C178.278 139.768 177.452 140.033 174.269 138.801C171.089 137.57 168.618 135.321 166.092 133.157C164.892 132.128 163.78 130.997 162.511 129.802C162.712 131.059 163.191 132.07 163.829 132.944C166.688 136.859 170.327 139.828 175.018 141.196C178.417 142.188 180.54 140.989 181.983 137.745C182.065 137.559 182.137 137.382 182.429 137.283C187.337 144.352 192.258 151.439 197.178 158.526C197.094 158.62 197.01 158.713 196.926 158.806C182.646 154.38 169.617 147.366 157.263 139.064C156.457 139.976 156.588 140.557 157.117 141.196C158.29 142.611 159.913 143.408 161.412 144.361C169.74 149.654 178.58 153.965 187.653 157.799C190.899 159.17 194.262 160.268 197.779 160.769C198.398 160.857 198.752 161.23 199.068 161.712C202.318 166.651 205.564 171.593 208.83 176.522C212.996 182.808 217.183 189.079 221.352 195.363C222.144 196.558 222.759 197.849 223.237 199.201C223.932 201.166 223.035 202.926 221.048 203.619C218.497 204.509 216.208 203.594 213.969 202.574C210.684 201.078 207.97 198.714 205.165 196.511C198.354 191.163 192.809 184.677 188.044 177.47C185.814 174.096 183.374 170.861 181.02 167.569C180.775 167.226 180.584 166.797 180.031 166.729C179.465 167.232 179.897 167.765 180.075 168.217C181.131 170.894 182.668 173.296 184.365 175.607C186.056 177.91 187.723 180.23 189.37 182.565C189.696 183.027 190.066 183.511 190.139 184.4C188.616 183.137 187.257 182.035 185.926 180.901C180.111 175.944 173.971 171.407 167.255 167.782C159.28 163.478 150.044 163.983 143.688 172.165C141.727 174.69 140.358 177.357 140.639 180.741C137.897 180.281 136.067 181.785 134.188 183.305C130.574 186.228 126.436 188.237 122.119 189.884C117.698 191.572 113.122 192.718 108.445 193.375C104.209 193.969 99.9578 194.196 95.6542 193.868C87.1857 193.222 79.5907 190.243 72.6913 185.484C62.8307 178.681 55.6701 169.784 52.7793 157.961C51.5507 152.937 50.7127 147.794 50.9093 142.562C50.9955 140.27 50.6467 137.963 51.112 135.685C51.3787 134.379 51.9861 133.898 53.31 133.831C54.2273 133.784 55.1633 133.778 56.0166 134.1C57.5087 134.661 58.88 134.357 60.2675 133.779C60.7989 133.558 61.3226 133.2 62.0332 133.436C62.1683 134.667 61.778 135.848 61.5025 137.011C59.0211 147.493 61.8924 156.431 68.9886 164.333C73.3944 169.238 78.5692 173.1 84.1209 176.538C84.866 177 85.6623 177.335 86.5156 177.56C87.0103 177.14 87.0434 176.565 87.1151 176.036C88.1714 168.244 92.9511 163.171 100.629 161.794C101.833 161.578 103.089 161.582 104.3 161.834C106.315 162.252 107.975 161.842 109.194 160.06C110.364 158.351 111.494 156.649 111.787 154.518C112.018 152.836 112.002 152.63 110.471 151.942C107.423 150.573 104.444 149.091 101.781 147.042C96.4482 142.938 92.3435 137.784 88.8627 132.075C85.9145 127.239 83.3899 122.216 82.1548 116.657C80.4178 108.839 80.307 101.048 82.7622 93.3102C83.4404 91.1733 84.1371 89.0188 84.1393 86.7065C84.1414 84.3875 82.9967 82.9078 81.0528 81.8932C77.7621 80.1759 74.201 79.9936 70.6154 80.2002C67.5372 80.3775 64.4627 80.6696 61.4287 81.3004C60.6047 81.4717 59.9175 81.8651 59.1698 82.2919C59.8937 74.8861 66.2026 67.5837 73.0437 64.7696C72.8133 65.8812 72.5981 66.8915 72.396 67.9044C72.2242 68.7656 72.1618 69.6382 72.2914 70.5077C72.4716 71.7143 73.4938 72.7766 74.6852 72.8011C76.326 72.8349 77.7819 72.228 79.0107 71.1238C79.1916 70.9613 79.3095 70.7497 79.1651 70.3954C78.5649 70.1512 77.9065 70.3864 77.267 70.4471C75.9502 70.5727 75.721 70.4254 75.7022 69.0899C75.6719 66.9463 76.255 64.9333 77.1798 63.0256C80.1247 56.9514 85.2003 53.6764 91.6601 52.632C99.4548 51.3718 106.65 53.1796 113.263 57.5254C119.465 61.6009 123.817 67.2758 127.597 73.5033C129.797 77.1283 131.801 80.8898 134.679 84.0628C134.775 84.169 134.814 84.3273 134.889 84.4824C130.437 84.3999 126.131 84.8672 122.119 86.793C113.956 90.7125 110.225 97.2738 110.7 106.379ZM117.102 172.464C117.014 174.07 116.17 175.111 114.696 175.682C113.027 176.328 111.277 176.695 109.557 177.16C108.975 177.318 108.423 177.699 107.636 177.501C108.544 176.369 109.17 175.186 109.638 173.934C109.877 173.296 110.513 172.544 110.007 171.949C109.422 171.262 108.427 171.303 107.545 171.409C107.24 171.445 106.942 171.591 106.657 171.721C104.566 172.673 102.991 174.207 101.797 176.137C101.234 177.046 100.784 178.024 100.236 178.943C99.6635 179.903 99.146 179.945 98.3561 179.159C97.529 178.337 97.3007 177.301 97.4146 176.199C97.7041 173.396 98.6046 170.866 100.815 168.957C101.41 168.443 101.994 167.916 102.633 167.35C101.796 166.822 100.978 166.716 100.099 167.045C98.4013 167.68 97.0906 168.751 96.1767 170.341C94.8338 172.678 94.041 175.216 93.5502 177.828C93.2118 179.627 93.3512 181.459 94.183 183.178C94.9427 184.748 95.9115 185.209 97.5638 184.598C98.2245 184.354 98.8341 183.961 99.4493 183.605C101.495 182.421 102.507 182.832 103.272 185.092C103.618 186.114 103.435 187.186 103.635 188.213C104.34 188.307 104.772 187.984 105.1 187.505C106.113 186.023 106.452 184.41 106.048 182.641C105.938 182.162 105.566 181.719 105.783 181.134C107.465 180.874 109.111 180.458 110.746 179.997C116.462 178.385 122.163 176.713 127.903 175.194C130.547 174.494 133.261 174.123 135.977 175.069C137.246 175.511 138.136 176.476 139.246 177.393C139.947 175.412 139.884 173.596 139.585 171.741C138.495 164.974 134.818 160.193 128.566 157.435C126.241 156.409 123.776 156.014 121.25 156.604C117.375 157.508 115.14 160.2 113.612 163.671C113.144 164.733 113.356 165.39 114.364 166.011C116.687 167.44 117.287 169.704 117.102 172.464ZM132.583 112.009C131.914 111.308 131.351 110.484 130.321 109.997C130.193 110.491 129.987 110.858 129.539 111.021C124.679 112.794 119.351 112.096 117.097 105.949C116.73 104.948 116.5 103.898 116.204 102.87C116.109 102.54 116.074 102.167 115.664 102.037C114.015 105.279 115.007 109.932 117.984 111.849C121.569 114.158 125.477 115.357 129.693 113.344C130.422 112.996 130.985 113.109 131.44 113.781C132.329 115.094 133.577 115.989 134.903 116.815C136.047 117.527 137.196 118.25 138.245 119.091C141.479 121.685 145.163 123.41 149.016 124.825C151.149 125.608 153.372 126.014 155.627 126.185C158.156 126.378 160.338 125.064 160.473 123.145C160.673 120.323 160.194 117.538 159.594 114.783C159.516 114.428 159.394 114.069 158.958 114.021C158.552 113.977 158.286 114.249 158.076 114.54C157.49 115.349 157.288 116.28 157.437 117.245C157.683 118.846 157.97 120.444 158.306 122.028C158.517 123.021 158.14 123.523 157.209 123.763C156.348 123.983 155.481 124.055 154.611 123.914C153.44 123.725 152.271 123.515 151.111 123.264C146.818 122.333 143.109 120.232 139.677 117.547C141.861 115.49 142.512 112.386 144.898 110.584C144.271 109.877 143.698 109.869 142.985 110.2C141.868 110.72 140.967 111.43 140.343 112.504C139.805 113.429 139.214 114.322 138.65 115.231C138.271 115.841 137.8 115.908 137.131 115.651C135.276 114.939 133.994 113.532 132.583 112.009ZM201.937 180.149C206.345 186.032 210.374 192.225 215.786 197.286C215.916 197.191 216.046 197.097 216.175 197.002C208.359 185.791 200.543 174.579 192.546 163.108C192.424 164.412 192.497 164.655 193.404 166.491C195.768 171.277 198.858 175.609 201.937 180.149ZM176.041 155.79C175.748 155.667 175.452 155.551 175.164 155.42C170.466 153.292 165.945 150.816 161.395 148.396C159.578 147.429 159.043 147.279 157.738 147.411C167.12 154.327 176.811 159.976 188.267 161.823C188.355 161.633 188.443 161.442 188.531 161.252C184.423 159.457 180.314 157.662 176.041 155.79ZM96.2308 63.7314C95.1881 63.3554 94.164 62.9134 93.0993 62.6163C90.6007 61.9188 88.6051 62.8757 86.9395 64.685C86.4777 65.1866 86.1978 65.7663 86.554 66.5243C87.5162 68.5728 89.9397 69.6513 92.1236 69.0639C94.5426 68.4132 95.5289 66.3692 96.7448 64.5342C96.9979 64.1522 96.6576 63.9726 96.2308 63.7314ZM88.1336 183.766C88.0769 183.747 88.0211 183.721 87.9632 183.714C87.9498 183.713 87.9115 183.781 87.9141 183.814C88.0838 185.897 88.8479 187.735 90.2936 189.246C91.5662 190.576 93.1225 191.314 95.002 191.009C96.1579 190.821 97.1844 190.338 97.738 189.146C96.0612 189.456 94.5031 189.322 92.9263 188.779C90.4804 187.937 89.3247 185.924 88.1336 183.766ZM109.282 132.057C109.535 132.708 109.432 133.386 109.448 134.057C109.455 134.364 109.15 134.773 109.445 134.957C110.664 135.72 111.649 136.775 112.81 137.797C112.879 137.463 112.933 137.347 112.921 137.238C112.674 134.915 110.928 133.427 109.752 131.627C109.566 131.343 109.368 131.668 109.282 132.057ZM86.7682 96.1584C86.0498 97.7701 86.5545 99.1657 87.5212 100.683C88.4986 98.5758 88.3592 96.7131 87.4092 94.8283C86.8528 95.1011 86.864 95.557 86.7682 96.1584ZM98.0701 109.47C97.4582 111.636 98.1838 113.099 100.354 113.72C100.727 111.811 99.913 110.395 98.0701 109.47ZM95.0275 96.2237C95.4848 96.4879 95.7421 97.0944 96.5053 97.0379C96.6307 96.4844 96.8277 95.9249 96.8699 95.3542C96.9309 94.5226 95.7312 93.3212 95.1917 93.5938C94.5493 93.9183 94.3589 95.5777 95.0275 96.2237ZM121.429 134.429C120.863 133.218 120.395 131.943 119.389 130.867C119.081 131.546 118.874 132.955 118.965 133.33C119.139 134.045 120.692 134.825 121.429 134.429ZM106.76 111.429C106.602 109.966 106.019 108.675 105.199 107.445C104.907 108.296 104.62 109.13 104.646 109.954C104.668 110.657 105.629 110.44 106.03 110.863C106.219 111.062 106.436 111.234 106.76 111.429ZM99.1028 133.407C99.0023 134.342 99.4145 135 100.223 135.424C100.516 135.578 100.845 135.582 101.116 135.369C101.352 135.183 101.447 134.895 101.296 134.628C100.752 133.66 100.145 132.744 99.1126 132.207C98.8231 132.636 99.0716 132.924 99.1028 133.407ZM103.242 95.6001C103.676 95.8148 104.225 96.1079 104.428 95.4602C104.606 94.8934 104.67 94.1931 104.041 93.7363C103.656 93.4577 103.247 93.3243 102.859 93.7079C102.292 94.2691 102.619 94.7899 102.972 95.298C103.017 95.3628 103.07 95.4221 103.242 95.6001ZM88.7378 116.294C88.739 116.49 88.7352 116.687 88.7426 116.883C88.7571 117.272 88.8837 117.642 89.3293 117.606C89.8873 117.561 89.8354 117.08 89.7777 116.696C89.7322 116.393 89.6621 116.038 89.4708 115.824C89.0478 115.353 88.8058 115.582 88.7378 116.294Z" fill="#273132"/>
<path d="M62.8698 54.5278C53.5737 63.0385 46.3864 72.9808 41.3413 84.4288C37.9236 92.1841 35.3991 100.227 34.1712 108.646C33.1142 115.895 32.9526 123.192 33.2498 130.483C33.5919 138.884 35.0862 147.128 37.1352 155.29C39.4241 164.409 43.0095 172.955 47.8409 180.997C51.9777 187.883 57.3822 193.59 63.6349 198.628C71.0922 204.638 79.2538 209.378 88.0611 213.011C93.1179 215.096 98.4247 216.458 103.814 217.444C104.122 217.501 104.482 217.556 104.759 217.453C106.293 216.882 106.937 217.908 107.792 218.891C111.776 223.471 116.523 227.048 122.144 229.414C122.51 229.568 122.876 229.72 123.238 229.883C123.301 229.911 123.342 229.99 123.496 230.158C122.442 230.669 121.335 230.613 120.283 230.742C115.957 231.273 111.669 230.692 107.366 230.305C100.635 229.701 94.0377 228.459 87.6258 226.335C82.0717 224.495 76.8309 221.968 71.8141 218.94C63.7722 214.086 56.562 208.195 50.1348 201.391C43.9843 194.88 38.7419 187.656 34.2651 179.879C30.4047 173.174 27.4109 166.127 25.37 158.658C23.9292 153.384 22.601 148.089 21.9196 142.662C21.5302 139.561 21.3249 136.434 21.1407 133.312C20.9306 129.751 20.7332 126.182 20.7172 122.616C20.6971 118.104 21.1878 113.615 21.5262 109.116C21.9566 103.395 23.1168 97.8288 24.5048 92.3116C26.9112 82.7448 30.7032 73.753 36.3038 65.5719C42.0924 57.1163 49.1791 49.9042 57.213 43.5881C64.4546 37.8948 72.2361 33.0996 80.7042 29.4437C85.7946 27.2458 91.1388 26.0001 96.5992 25.1694C104.571 23.9563 112.276 25.056 119.863 27.6163C127.747 30.277 134.863 34.2953 141.221 39.604C146.177 43.7422 149.72 48.9944 152.299 54.8981C152.672 55.7535 152.985 56.6354 153.384 57.6517C148.081 57.1942 142.953 57.244 137.892 58.4101C136.969 56.7219 136.163 55.0859 135.212 53.5396C130.996 46.686 125.206 41.6999 117.596 38.9352C114.821 37.9272 111.912 37.5424 108.994 37.2655C102.237 36.6241 95.6458 37.5541 89.1706 39.4665C83.8104 41.0494 78.8318 43.4732 74.0147 46.2823C70.0175 48.6137 66.4495 51.5014 62.8698 54.5278Z" fill="#273132"/>
<path d="M209.955 169.006C213.005 160.819 215.575 152.579 217.361 144.118C218.415 139.127 219.09 134.074 219.445 128.969C219.768 124.32 219.624 119.688 219.345 115.059C218.773 105.552 216.033 96.6192 211.929 88.0678C208.505 80.9315 204.688 74.0125 199.811 67.766C194.913 61.4935 189.352 55.8317 183.121 50.8502C177.703 46.5182 171.84 42.8811 165.598 39.8895C159.1 36.7754 152.276 34.6123 145.151 33.4256C142.186 32.9317 139.229 32.4155 136.224 32.2211C135.46 32.1718 134.794 31.8601 134.165 31.39C130.735 28.8277 126.96 26.9255 122.895 25.5852C120.907 24.9299 118.935 24.2272 116.922 23.5344C117.059 22.8103 117.654 22.817 118.106 22.6977C122.782 21.465 127.508 20.646 132.36 20.3668C142.703 19.7717 152.66 21.546 162.261 25.1937C173.508 29.4663 183.719 35.5766 193.011 43.2557C201.417 50.2016 208.816 58.0589 215.018 67.013C219.003 72.767 222.281 78.9237 224.915 85.4264C227.707 92.3228 229.643 99.4319 230.777 106.785C231.515 111.571 231.827 116.368 231.96 121.203C232.311 134.002 230.365 146.455 226.475 158.611C224.137 165.917 221.128 172.95 217.206 179.567C216.855 180.159 216.728 180.819 216.514 181.474C215.895 181.536 215.723 181.002 215.455 180.666C213.819 178.617 212.358 176.444 210.934 174.243C210.379 173.385 209.874 172.449 208.72 172.072C209.133 171.049 209.527 170.07 209.955 169.006Z" fill="#273132"/>
<path d="M166.3 225.199C161.994 226.86 157.725 228.341 153.279 229.21C147.541 230.332 141.774 230.807 135.915 230.113C131.794 229.624 127.743 228.931 123.98 227.159C111.429 221.248 103.57 211.504 100.397 197.991C100.334 197.723 100.279 197.45 100.255 197.176C100.242 197.028 100.302 196.874 100.338 196.679C104.661 196.772 108.968 196.976 113.269 195.601C113.882 196.972 114.614 198.368 115.145 199.837C117.935 207.564 123.327 212.92 130.429 216.725C132.877 218.036 135.572 218.494 138.285 218.91C143.24 219.669 147.869 218.135 152.508 216.876C162.481 214.168 171.637 209.657 180.171 203.87C185.335 200.368 190.08 196.337 194.781 192.09C197.697 195.024 200.502 198.134 203.958 200.594C192.639 210.547 180.625 219.553 166.3 225.199Z" fill="#273132"/>
<path d="M77.7588 129.405C77.9494 135.607 77.5701 141.635 76.1213 147.578C74.9337 152.45 73.088 157.081 71.171 161.692C71.1462 161.752 71.0462 161.78 70.8603 161.903C70.0907 160.843 69.3027 159.784 68.5421 158.705C65.7113 154.691 64.0822 150.33 63.9411 145.32C63.8494 142.069 64.3667 138.935 64.7694 135.767C65.1173 133.028 64.9362 130.307 64.6869 127.591C64.3905 124.357 63.846 121.146 62.8014 118.067C60.4369 111.099 57.3281 104.52 52.0418 99.2267C49.2251 96.4064 45.7457 95.5596 41.8548 96.2875C41.3563 96.3807 40.8471 96.4174 40.0348 96.5189C41.9029 90.2502 44.2612 84.4238 47.159 78.7779C48.078 78.99 48.5524 79.6908 49.2086 80.1051C57.1413 85.1152 63.3216 91.8369 68.3 99.7274C72.6479 106.619 75.4401 114.12 76.976 122.093C77.4321 124.459 77.6506 126.873 77.7588 129.405Z" fill="#273132"/>
<path d="M198.552 129.917C199.379 129.292 200.09 128.626 200.918 128.179C201.723 127.744 201.998 127.111 202.146 126.3C203.855 116.948 203.112 107.841 199.463 99.0168C199.069 98.0642 198.716 97.0939 198.3 96.1515C197.949 95.3564 197.525 94.5965 196.566 94.2405C198.535 91.8579 200.981 90.4225 203.887 89.7679C205.271 89.4563 206.164 90.3796 206.903 91.3006C210.496 95.7743 213.252 100.738 214.711 106.288C216.025 111.287 215.814 116.348 214.218 121.299C213.932 122.189 213.464 123.02 213.042 123.963C213.755 124.137 214.398 124.066 215.055 123.934C216.493 123.645 216.71 123.787 216.669 125.206C216.565 128.847 216.193 132.467 215.604 136.061C215.389 137.371 215.356 138.726 214.844 139.873C205.542 137.005 199.503 141.401 194.617 148.788C192.467 145.873 190.621 142.932 188.924 139.749C190.072 140.563 190.47 139.903 190.923 139.039C192.789 135.477 195.332 132.466 198.552 129.917Z" fill="#273132"/>
<path d="M153.954 73.445C150.144 72.8736 146.416 72.8354 142.695 73.0935C139.813 73.2934 136.941 73.6604 134.186 74.6256C133.517 74.8599 132.836 75.0569 131.954 75.3364C130.255 72.2717 128.517 69.1375 126.735 65.9246C127.143 65.2445 127.894 64.8892 128.657 64.5878C133.724 62.5851 138.926 61.1644 144.381 60.649C154.937 59.6516 165.065 61.1968 174.746 65.5273C179.15 67.4972 183.218 70.039 186.978 73.0623C187.773 73.7016 188.486 74.4424 189.248 75.1463C187.916 76.7447 186.649 78.3161 185.325 79.8373C184.067 81.282 183.073 82.9078 181.983 84.469C181.74 84.8179 181.506 85.3154 180.974 84.8603C178.796 82.996 176.33 81.5515 173.878 80.1109C168.279 76.8219 162.197 74.8356 155.82 73.7142C155.236 73.6115 154.647 73.5415 153.954 73.445Z" fill="#273132"/>
<path d="M206.984 85.2356C201.269 86.4978 196.766 89.3283 193.675 94.3391C189.029 101.872 186.574 110.113 185.451 118.818C184.898 123.101 184.372 127.385 184.523 131.715C184.57 133.048 184.743 134.377 184.858 135.716C184.344 135.776 184.226 135.382 184.079 135.087C181.677 130.273 178.402 126.011 175.486 121.522C174.838 120.524 174.227 119.499 173.537 118.53C172.837 117.546 172.827 116.432 172.957 115.355C173.838 108.103 175.871 101.161 178.949 94.5495C182.271 87.4152 187.151 81.3685 192.597 75.7696C194.442 73.8724 196.557 72.2507 198.783 70.77C201.477 74.9075 203.963 79.0937 206.355 83.3353C206.677 83.9053 207.079 84.4733 206.984 85.2356Z" fill="#273132"/>
<path d="M46.9161 99.5134C49.5391 100.442 52.288 103.042 53.4937 105.681C49.1129 106.718 48.0027 110.335 47.3736 113.994C46.4801 119.189 46.9779 124.329 49.2165 129.205C49.4803 129.78 49.8782 130.259 50.2459 130.759C48.5786 131.801 48.0585 133.5 47.8245 135.126C47.2424 139.168 47.1132 143.246 47.4144 147.338C47.6184 150.113 48.1945 152.816 48.6596 155.543C48.6918 155.731 48.6639 155.929 48.6639 156.291C46.5308 154.911 44.7373 153.349 43.1863 151.522C39.3324 146.982 37.5221 141.632 36.8214 135.785C36.3069 131.492 35.8856 127.199 36.0007 122.88C36.1792 116.188 36.7032 109.527 38.1531 102.967C38.374 101.967 38.4355 100.932 38.5806 99.8406C41.3349 99.4403 44.0484 98.9227 46.9161 99.5134Z" fill="#273132"/>
<path d="M141.665 194.84C141.661 195.236 141.555 195.559 141.759 195.847C143.562 195.443 143.879 193.749 143.04 188.952C155.197 188.537 164.697 182.364 173.48 174.827C175.536 177.688 178.801 178.789 181.515 180.793C178.299 185.085 174.817 189.139 170.363 192.309C164.796 196.272 158.528 198.258 151.87 199.304C147.301 200.021 142.782 199.934 138.355 198.552C133.607 197.069 132.042 193.472 132.424 189.088C132.487 188.369 133.092 188.005 133.563 187.639C135.185 186.376 136.87 185.193 138.715 183.845C139.488 187.647 141.54 190.923 141.665 194.84Z" fill="#273132"/>
<path d="M149.518 202.645C151.593 202.454 153.51 201.991 155.838 201.452C154.896 203.257 154.156 204.796 153.31 206.274C151.438 209.548 149.171 212.564 147.039 215.666C146.854 215.936 146.665 216.174 146.307 216.212C141.385 216.743 136.579 216.295 131.967 214.409C130.619 213.858 130.569 213.694 131.557 212.603C134.342 209.525 136.653 206.13 138.59 202.47C138.821 202.033 139.073 201.795 139.617 201.97C142.822 203.003 146.123 202.742 149.518 202.645Z" fill="#273132"/>
<path d="M212.331 151.508C211.389 153.517 210.258 155.246 208.477 156.514C206.732 157.756 204.653 158.153 202.796 158.823C202.572 159.428 203.245 159.685 203.007 160.24C202.362 159.972 201.877 159.543 201.501 158.987C199.922 156.656 198.36 154.313 196.768 151.991C196.514 151.62 196.562 151.329 196.79 151.019C198.101 149.234 199.058 147.197 200.702 145.647C203.599 142.915 206.917 141.504 210.972 142.123C211.986 142.277 213.014 142.338 214.009 142.614C214.431 142.731 214.769 142.868 214.599 143.42C213.785 146.068 213.423 148.843 212.331 151.508Z" fill="#273132"/>
<path d="M109.075 52.0225C105.983 50.3898 102.662 49.7781 99.1679 49.0345C100.009 47.7649 100.914 46.7968 101.859 45.8749C103.479 44.2951 104.776 42.4155 106.486 40.922C106.545 40.8707 106.638 40.7995 106.634 40.743C106.502 38.8029 107.856 39.6395 108.663 39.7289C113.566 40.271 118.073 42.0433 122.632 44.3091C118.857 47.0677 115.245 49.8103 112.492 53.6593C111.334 53.3157 110.31 52.5396 109.075 52.0225Z" fill="#273132"/>
<path d="M145.835 75.9298C148.282 75.9293 150.611 75.9293 153.01 75.9293C151.976 81.6695 151.792 87.2791 152.622 92.9199C152.523 92.9576 152.424 92.9952 152.326 93.0329C151.441 92.2835 150.557 91.5329 149.671 90.7849C146.597 88.1896 143.087 86.3922 139.27 85.1848C138.704 85.0059 138.43 84.8055 138.344 84.1724C138.061 82.0796 138.153 79.9808 138.108 77.8832C138.089 77.0494 138.368 76.7118 139.232 76.5919C141.387 76.2929 143.534 75.9491 145.835 75.9298Z" fill="#273132"/>
<path d="M56.0249 172.729C59.0745 178.091 63.0924 182.421 68.4713 185.716C65.6951 186.85 63.1138 187.921 60.518 188.955C59.6973 189.282 58.9108 189.601 58.6494 190.757C54.5574 185.799 50.5969 181.004 48.2565 175.033C50.7379 174.099 53.0309 173.042 55.0492 171.562C55.6735 171.734 55.7159 172.285 56.0249 172.729Z" fill="#273132"/>
<path d="M159.598 104.654C160.623 105.806 161.588 106.897 162.643 108.088C161.156 108.873 159.738 108.904 158.298 108.575C157.405 108.372 156.555 107.988 155.818 107.45C152.139 104.762 149.572 101.295 148.491 96.8113C148.321 96.1062 148.34 95.4047 148.593 94.4921C153.06 97.072 156.178 100.967 159.598 104.654Z" fill="#273132"/>
<path d="M198.582 108.053C196.103 107.232 193.662 106.565 191.318 105.463C192.446 102.402 194.036 99.6387 195.67 96.808C196.201 97.4077 196.239 98.0963 196.442 98.708C197.363 101.485 198.274 104.266 199.139 107.06C199.246 107.406 199.934 108.268 198.582 108.053Z" fill="#273132"/>
<path d="M92.5456 64.3097C92.7822 64.4155 93.015 64.4737 93.0386 64.579C93.2947 65.7244 92.3547 66.2319 91.723 66.8639C91.251 67.3361 90.626 67.5782 90.0591 66.9372C89.5432 66.3539 88.7007 65.7554 88.9447 64.9688C89.2158 64.095 90.2354 64.2578 91.0184 64.254C91.4938 64.2516 91.9692 64.2733 92.5456 64.3097Z" fill="#273132"/>
</svg>
