<svg width="32" height="32" viewBox="0 0 32 32" fill="none" xmlns="http://www.w3.org/2000/svg">
<path d="M2.06241 13.5625C2.06242 12.0731 2.03084 10.6141 2.06909 9.15689C2.14509 6.26153 3.54697 4.17062 6.06722 2.81431C7.08214 2.26812 8.1838 2.05142 9.34551 2.05563C13.897 2.07216 18.4487 2.06185 23.0003 2.06257C26.457 2.06312 29.5609 4.75829 30.0452 8.18267C30.0699 8.35675 30.062 8.53605 30.062 8.71291C30.0628 13.5041 30.047 18.2953 30.0716 23.0863C30.0796 24.6482 29.5725 26.0085 28.6558 27.2271C27.5059 28.756 25.9672 29.6842 24.0817 30.0243C23.8788 30.0609 23.6675 30.061 23.4601 30.0611C18.6689 30.063 13.8777 30.0471 9.08663 30.0706C7.289 30.0794 5.76672 29.4324 4.46611 28.2591C2.87226 26.8211 2.04965 25.0157 2.05903 22.8427C2.07235 19.7598 2.06241 16.6768 2.06241 13.5625ZM9.16537 27.747C13.7274 27.7475 18.2894 27.7518 22.8514 27.7469C25.58 27.7439 27.7448 25.5713 27.7472 22.8374C27.7512 18.3483 27.7508 13.8592 27.7474 9.37012C27.7453 6.60578 25.5763 4.44188 22.8054 4.43974C18.3267 4.43628 13.848 4.43583 9.36935 4.43993C6.62247 4.44244 4.44316 6.61451 4.44022 9.35485C4.4354 13.8439 4.43598 18.333 4.44004 22.8221C4.44244 25.4739 6.46093 27.5983 9.16537 27.747Z" fill="#FDFCFC"/>
<path d="M14.8454 9.21792C18.1505 8.64063 21.1872 10.4216 22.4672 13.21C24.3713 17.3578 21.7372 22.2958 17.2277 23.0013C12.6753 23.7135 8.72366 20.0124 9.13269 15.4194C9.40429 12.3696 11.7916 9.76905 14.8454 9.21792ZM20.1121 13.3596C18.2559 10.6818 14.4758 10.5454 12.4492 12.9047C11.1961 14.3634 10.8859 16.0466 11.5743 17.8335C12.2769 19.6571 13.6657 20.7272 15.6139 20.9201C17.6024 21.117 19.1988 20.3218 20.236 18.6174C21.2873 16.8897 21.2063 15.1179 20.1121 13.3596Z" fill="#FDFCFC"/>
<path d="M22.368 7.69617C22.7598 6.94501 23.4017 6.60144 24.1372 6.73063C24.8008 6.84719 25.3483 7.39508 25.4404 8.0348C25.5441 8.75551 25.2494 9.37917 24.6402 9.72789C24.0752 10.0513 23.3386 9.98167 22.828 9.55654C22.2852 9.10459 22.1194 8.4535 22.368 7.69617Z" fill="#FDFCFC"/>
</svg>
