<svg width="32" height="32" viewBox="0 0 32 32" fill="none" xmlns="http://www.w3.org/2000/svg">
<path d="M2.25468 18.6682C1.69072 15.2532 2.20898 12.0481 3.93162 9.06506C5.05933 7.11226 6.58306 5.52202 8.47352 4.28659C10.082 3.23545 11.8335 2.52932 13.7263 2.22518C16.8899 1.71683 19.904 2.1911 22.727 3.74221C25.3333 5.1743 27.2986 7.23127 28.628 9.88505C29.4135 11.4529 29.882 13.1137 30.0314 14.8716C30.3081 18.127 29.5573 21.1167 27.7588 23.8325C26.3301 25.9899 24.4274 27.6208 22.0917 28.7424C19.9127 29.7887 17.6053 30.2385 15.2071 30.0639C10.5312 29.7234 6.88379 27.5647 4.27374 23.6709C3.25783 22.1554 2.62487 20.4773 2.25468 18.6682ZM23.6029 6.36698C19.4 3.05831 13.6124 2.85244 9.18044 5.88448C4.78345 8.8926 2.64674 14.4009 4.30054 19.7364C5.07507 22.2352 6.54197 24.2772 8.62749 25.8594C9.61339 26.6074 10.6816 27.2145 11.9199 27.6264C11.9199 27.0321 11.9204 26.5033 11.9197 25.9745C11.9191 25.5513 11.9191 25.5591 11.5026 25.595C10.41 25.6893 9.47259 25.3605 8.70736 24.5606C8.42394 24.2643 8.22539 23.9081 7.9812 23.5844C7.68836 23.1963 7.35908 22.8484 6.84487 22.771C6.69068 22.7478 6.66885 22.6482 6.65775 22.5296C6.62094 22.1361 6.58933 21.7421 6.54815 21.3491C6.52541 21.1321 6.61314 21.0464 6.82946 21.0499C7.43719 21.0597 7.96285 21.29 8.44623 21.6358C8.99904 22.0313 9.37565 22.58 9.75776 23.1289C10.2458 23.83 10.9438 24.0511 11.7306 23.7909C11.8299 23.758 11.9511 23.7344 11.9669 23.6144C12.0237 23.1805 12.1781 22.7743 12.3247 22.3652C12.1021 22.2199 11.8603 22.187 11.6375 22.1054C10.0232 21.5143 8.69929 20.5653 7.81214 19.0571C7.00779 17.6896 6.78394 16.2114 6.95608 14.6614C7.07726 13.5704 7.42916 12.5489 8.04439 11.6346C8.2043 11.397 8.24826 11.1815 8.20122 10.9072C8.05738 10.0682 8.07139 9.22927 8.28209 8.40076C8.56621 7.28351 9.22404 6.89374 10.3491 7.14058C11.2816 7.34516 12.0945 7.80624 12.8987 8.28831C13.0553 8.38215 13.1958 8.39691 13.3692 8.355C15.1496 7.92461 16.9337 7.9309 18.7162 8.33953C18.9349 8.38967 19.1128 8.36635 19.305 8.24807C19.9611 7.84433 20.6313 7.47071 21.3729 7.23396C22.8355 6.76701 23.6038 7.20671 23.9057 8.70634C24.0596 9.47057 24.043 10.2358 23.9135 11.0006C23.883 11.1812 23.882 11.3457 23.993 11.5067C24.9074 12.8326 25.2805 14.3089 25.2085 15.9086C25.1013 18.293 24.0262 20.1123 22.011 21.3783C21.418 21.7508 20.7838 22.0391 20.105 22.2223C19.8725 22.2851 19.7853 22.3909 19.8951 22.6514C20.1108 23.1632 20.2075 23.7054 20.2059 24.2642C20.203 25.2535 20.2048 26.2429 20.2084 27.2323C20.2088 27.3423 20.1741 27.461 20.2685 27.584C20.8614 27.4358 21.4044 27.1522 21.9379 26.8589C24.062 25.691 25.7134 24.0488 26.889 21.9221C27.8986 20.0958 28.3783 18.1324 28.3936 16.063C28.4044 14.6074 28.1194 13.1888 27.6054 11.8215C26.7868 9.64385 25.457 7.84025 23.6029 6.36698ZM15.1224 21.3322C14.7685 21.8467 14.4164 22.3624 14.0598 22.8751C13.8533 23.1719 13.7247 23.4938 13.6945 23.8569C13.582 25.2085 13.6714 26.5623 13.6423 27.9147C13.6381 28.1066 13.7375 28.158 13.903 28.1889C15.3299 28.4557 16.7554 28.4409 18.1841 28.1998C18.4193 28.1601 18.4879 28.057 18.4857 27.8284C18.476 26.8184 18.4577 25.8076 18.4891 24.7985C18.5178 23.8758 18.3245 23.0574 17.6952 22.3449C17.3912 22.0007 17.1762 21.5778 16.9089 21.1725C17.2287 21.0275 17.5217 21.021 17.8062 20.9818C18.8847 20.8332 19.9362 20.5927 20.8925 20.0475C22.66 19.0397 23.5423 17.4931 23.5256 15.4785C23.516 14.3152 23.1691 13.2188 22.4282 12.2884C22.1061 11.8841 22.0349 11.4591 22.1788 10.9731C22.3442 10.4144 22.324 9.83937 22.272 9.2688C22.2285 8.79118 22.1863 8.76951 21.7283 8.92781C21.0841 9.1504 20.5035 9.50049 19.9371 9.87102C19.5298 10.1375 19.1128 10.2224 18.6338 10.0922C16.9517 9.63531 15.2611 9.62548 13.5761 10.0723C13.0323 10.2164 12.5689 10.1251 12.0985 9.81944C11.5071 9.43507 10.9021 9.06235 10.2045 8.88028C9.98921 8.82408 9.9054 8.87569 9.87758 9.10041C9.79893 9.73572 9.78307 10.3687 9.95048 10.9899C10.0757 11.4545 10.0247 11.8609 9.7246 12.2523C8.82041 13.4319 8.48659 14.7747 8.64608 16.2428C8.76827 17.3676 9.22803 18.3393 10.0254 19.1442C10.857 19.9836 11.8878 20.4502 13.0169 20.7399C13.6345 20.8983 14.2678 20.9475 14.8912 21.0615C15.0056 21.0824 15.2281 21.0341 15.1224 21.3322Z" fill="#FDFCFC"/>
</svg>
