<svg width="32" height="32" viewBox="0 0 32 32" fill="none" xmlns="http://www.w3.org/2000/svg">
<path d="M29.3433 22.0969C28.2327 23.7682 26.6606 24.6155 24.7136 24.7848C22.7863 24.9524 21.0095 24.5358 19.4524 23.3321C18.6789 22.7341 18.1215 21.9765 17.8167 21.0566C17.1351 18.9996 17.1312 16.9273 17.8981 14.8995C18.5907 13.0679 19.9611 11.9301 21.8457 11.4331C23.4111 11.0203 24.9764 11.0754 26.4782 11.6855C28.396 12.4646 29.4715 13.9724 29.9279 15.9496C30.0234 16.3631 30.0714 16.7932 30.0892 17.2178C30.1158 17.851 30.0961 18.4862 30.0961 19.1747C28.6303 19.1747 27.1566 19.1747 25.6829 19.1747C24.2155 19.1747 22.7481 19.1747 21.2425 19.1747C21.2964 19.8956 21.5177 20.5074 22.0614 20.9747C22.8489 21.6517 24.3042 21.7938 25.2173 21.2961C25.5984 21.0883 25.8539 20.7737 26.0717 20.4085C26.1324 20.3067 26.2811 20.1957 26.3909 20.1942C27.526 20.1787 28.6615 20.1845 29.7968 20.1854C29.8467 20.1855 29.8965 20.1952 29.9748 20.2034C29.9572 20.9023 29.7207 21.5106 29.3433 22.0969ZM23.5313 18.5448C25.5144 18.5448 27.4975 18.5448 29.4968 18.5448C29.4944 17.5641 29.4996 16.6349 29.2329 15.736C28.6155 13.6548 27.2831 12.3157 25.1085 11.9584C24.3581 11.8351 23.5667 11.8073 22.8119 11.8933C20.6726 12.1372 19.133 13.266 18.4165 15.3175C17.7545 17.2127 17.7813 19.1464 18.4844 21.0422C18.7531 21.767 19.2123 22.363 19.8393 22.8366C21.4413 24.0466 23.2357 24.3899 25.1863 24.0725C26.8258 23.8057 28.0833 22.9667 28.9414 21.5431C29.07 21.3297 29.1516 21.0879 29.275 20.8149C28.3571 20.8149 27.525 20.8094 26.6931 20.8231C26.6059 20.8245 26.5108 20.9297 26.4363 21.0038C26.2088 21.2301 26.0138 21.4962 25.7623 21.6899C25.0745 22.2195 24.2679 22.2759 23.4412 22.191C21.64 22.0059 20.4658 20.6295 20.6051 18.5448C21.558 18.5448 22.5134 18.5448 23.5313 18.5448Z" fill="#FDFCFC"/>
<path d="M11.0879 24.8785C9.93488 24.9006 8.81072 24.9317 7.68641 24.9378C5.91593 24.9474 4.14536 24.9404 2.37482 24.9404C2.26268 24.9404 2.15055 24.9404 2.01831 24.9404C2.01831 19.0182 2.01831 13.1286 2.01831 7.20014C2.12503 7.19504 2.23451 7.18527 2.344 7.18524C5.04146 7.18444 7.73894 7.17974 10.4364 7.18688C11.6898 7.1902 12.911 7.35986 14.0117 8.0222C15.4731 8.90164 16.0821 10.2501 16.0994 11.9022C16.1139 13.2885 15.6984 14.4874 14.5062 15.3179C14.4839 15.3334 14.4739 15.3664 14.4462 15.4102C15.3527 15.9089 16.0051 16.633 16.34 17.6062C17.47 20.8891 15.431 24.2595 12.3244 24.7213C11.923 24.7809 11.5194 24.825 11.0879 24.8785ZM15.311 13.1962C15.3607 12.9096 15.4339 12.6247 15.4564 12.3359C15.6285 10.1233 14.5014 8.53465 12.3614 8.0406C11.728 7.89437 11.0632 7.83116 10.4119 7.82476C7.93419 7.80043 5.45607 7.81472 2.9781 7.8155C2.86835 7.81553 2.75859 7.82461 2.64886 7.82948C2.64886 13.3369 2.64886 18.8076 2.64886 24.2946C2.7606 24.3005 2.85191 24.3094 2.94323 24.3094C5.27544 24.3101 7.60768 24.3174 9.93982 24.3046C10.5319 24.3014 11.1267 24.2596 11.7148 24.1901C12.6257 24.0826 13.4991 23.8323 14.221 23.2356C15.7333 21.9855 16.2572 20.3606 15.9206 18.4581C15.6863 17.1343 14.9222 16.2186 13.6423 15.7562C13.422 15.6766 13.2048 15.5881 12.9105 15.4745C14.0028 14.9738 14.9585 14.4277 15.311 13.1962Z" fill="#FDFCFC"/>
<path d="M21.6249 10.2383C21.0551 10.2383 20.5165 10.2383 19.9591 10.2383C19.9591 9.44937 19.9591 8.69536 19.9591 7.92151C22.4507 7.92151 24.9347 7.92151 27.4416 7.92151C27.4416 8.68375 27.4416 9.4464 27.4416 10.2383C25.5036 10.2383 23.5799 10.2383 21.6249 10.2383ZM25.2187 9.60611C25.7462 9.60611 26.2737 9.60611 26.8119 9.60611C26.8119 9.23088 26.8119 8.89414 26.8119 8.55819C24.7262 8.55819 22.6608 8.55819 20.5877 8.55819C20.5877 8.91099 20.5877 9.23966 20.5877 9.60612C22.1214 9.60612 23.6388 9.60612 25.2187 9.60611Z" fill="#FDFCFC"/>
<path d="M26.5493 17.0646C24.565 17.0646 22.6104 17.0646 20.6596 17.0646C20.5198 16.0957 21.2673 14.6918 22.1747 14.1862C23.4313 13.4861 25.2167 13.8023 26.1373 14.8979C26.6225 15.4752 26.7729 16.1738 26.7992 16.9043C26.8011 16.955 26.6559 17.011 26.5493 17.0646ZM24.7917 14.6603C24.2847 14.4623 23.7592 14.4228 23.2242 14.4877C22.2895 14.6011 21.4316 15.5059 21.3922 16.4166C22.9601 16.4166 24.5278 16.4166 26.1169 16.4166C26.0025 15.585 25.5758 15.0171 24.7917 14.6603Z" fill="#FDFCFC"/>
<path d="M7.1251 21.9567C6.72144 21.9567 6.34899 21.9567 5.96021 21.9567C5.96021 20.2224 5.96021 18.5207 5.96021 16.8104C6.00384 16.7991 6.04298 16.7798 6.08196 16.7802C7.62115 16.7933 9.16186 16.7719 10.6989 16.8369C11.5942 16.8748 12.3869 17.2109 12.8115 18.0993C13.3957 19.3216 12.9364 20.9464 11.8122 21.5834C11.2715 21.8898 10.6659 21.9476 10.0591 21.9539C9.09162 21.9638 8.12393 21.9566 7.1251 21.9567ZM7.15551 17.4097C6.97121 17.4097 6.78691 17.4097 6.59544 17.4097C6.59544 18.731 6.59544 20.0138 6.59544 21.3079C6.66518 21.3148 6.71551 21.3241 6.76584 21.3242C7.87878 21.3248 8.99186 21.3346 10.1046 21.3181C10.4339 21.3132 10.7703 21.2652 11.0894 21.1827C12.3309 20.8615 12.8916 19.0246 12.0415 18.055C11.8833 17.8746 11.6588 17.7014 11.4338 17.6411C10.9867 17.5212 10.5195 17.4355 10.0577 17.4196C9.1123 17.387 8.165 17.4098 7.15551 17.4097Z" fill="#FDFCFC"/>
<path d="M5.94348 12.8125C5.94595 11.9386 5.94824 11.0959 5.95205 10.2533C5.95213 10.2355 5.96967 10.2178 5.97921 10.1999C5.99807 10.1915 6.01691 10.1757 6.03549 10.176C7.57397 10.2007 9.11244 10.2266 10.6509 10.2529C10.6819 10.2534 10.7129 10.2597 10.7439 10.2637C12.3388 10.4696 13.0807 11.6586 12.5681 13.1911C12.3033 13.9828 11.6474 14.2793 10.9171 14.4594C10.6467 14.5261 10.3613 14.558 10.0824 14.5602C8.77146 14.5704 7.46037 14.5649 6.14932 14.5643C6.0981 14.5643 6.0469 14.5561 5.94348 14.5472C5.94348 13.9787 5.94348 13.4112 5.94348 12.8125ZM6.97919 13.9352C7.95744 13.9351 8.93587 13.9456 9.91385 13.9294C10.2543 13.9237 10.6023 13.8857 10.9314 13.8019C11.3363 13.6987 11.7232 13.531 11.921 13.1107C12.4152 12.0607 11.914 11.0896 10.7772 10.8985C10.6337 10.8744 10.4894 10.8404 10.3451 10.8385C9.12819 10.8225 7.91116 10.8127 6.69415 10.8026C6.66575 10.8024 6.6372 10.8203 6.59417 10.8345C6.59417 11.8576 6.59417 12.8807 6.59417 13.9352C6.71593 13.9352 6.81762 13.9352 6.97919 13.9352Z" fill="#FDFCFC"/>
</svg>
