<svg width="34" height="34" viewBox="0 0 34 34" fill="none" xmlns="http://www.w3.org/2000/svg">
<path d="M26.8945 28.4837C19.3326 28.4838 11.8038 28.4838 4.27505 28.4838C4.25512 28.4479 4.2352 28.412 4.21527 28.3761C8.64913 20.8859 13.083 13.3958 17.5658 5.82291C22.0471 13.3967 26.4795 20.8876 30.9118 28.3785C30.8944 28.4136 30.8769 28.4486 30.8595 28.4837C29.5489 28.4837 28.2383 28.4837 26.8945 28.4837ZM15.1404 13.8419C12.65 18.0511 10.1596 22.2603 7.64883 26.504C14.2895 26.504 20.8578 26.504 27.4931 26.504C24.1761 20.8983 20.8923 15.3485 17.5703 9.73431C16.7374 11.1409 15.9503 12.4701 15.1404 13.8419Z" fill="#273132"/>
</svg>
