<svg width="34" height="34" viewBox="0 0 34 34" fill="none" xmlns="http://www.w3.org/2000/svg">
<path d="M24.7798 6.35231C26.5859 7.08281 27.6888 8.38824 28.0095 10.2778C28.1396 11.0443 28.0878 11.8444 28.0897 12.6293C28.0971 15.6171 28.1084 18.6051 28.0822 21.5927C28.0752 22.3971 28.1317 23.2127 27.9841 24.0085C27.6022 26.0671 25.9174 27.7013 23.8529 28.0241C23.4403 28.0886 23.0143 28.0835 22.5945 28.084C18.8431 28.0885 15.0917 28.079 11.3403 28.0909C9.4658 28.0969 7.96191 27.3921 6.89946 25.8342C6.3665 25.0526 6.09809 24.1857 6.07692 23.2186C5.99577 19.5118 6.01713 15.8051 6.05727 12.0987C6.06547 11.342 5.99082 10.5705 6.21098 9.8235C6.81476 7.77471 8.16531 6.51817 10.2559 6.12018C10.8995 5.99767 11.5792 6.0501 12.2424 6.04889C15.4626 6.043 18.683 6.0318 21.903 6.05698C22.6291 6.06265 23.3644 6.01411 24.0857 6.15667C24.3123 6.20145 24.5319 6.28142 24.7798 6.35231ZM9.54224 26.9447C10.0223 27.1282 10.514 27.2074 11.0331 27.206C15.0506 27.1955 19.0682 27.1926 23.0857 27.2082C23.6781 27.2105 24.2248 27.0851 24.7607 26.8691C26.1242 26.3195 27.2002 24.863 27.2003 23.2235C27.2004 19.062 27.2011 14.9006 27.2011 10.7391C27.2011 10.6175 27.2158 10.4915 27.1903 10.3749C26.876 8.93698 26.1242 7.84012 24.7318 7.24865C24.2279 7.03461 23.7123 6.92227 23.1548 6.92715C18.9386 6.96402 14.7217 6.86565 10.506 6.98465C8.75505 7.03407 7.02804 8.79405 6.98635 10.5365C6.96968 11.2333 6.93731 11.9301 6.93743 12.627C6.9381 16.3232 6.89351 20.0197 6.99097 23.7154C6.99443 23.8466 7.00804 23.9812 7.04186 24.1075C7.40001 25.4456 8.22021 26.385 9.54224 26.9447Z" fill="#273132"/>
<path d="M10.205 13.2148C10.2052 12.5292 10.2081 11.8767 10.2038 11.2243C10.2026 11.0415 10.2477 10.9314 10.4609 10.9345C11.9088 10.9555 13.3576 10.893 14.8045 10.9934C15.668 11.0533 16.2969 11.4963 16.7525 12.2041C17.0869 12.7236 17.2788 13.3026 17.3256 13.916C17.4052 14.9577 17.3642 15.9925 16.99 16.9855C16.5869 18.0555 15.7452 18.5191 14.6627 18.6106C13.7476 18.6879 12.8284 18.6727 11.9113 18.6549C11.5708 18.6483 11.4754 18.7702 11.4816 19.0984C11.4996 20.0601 11.4798 21.0225 11.4928 21.9844C11.4971 22.3008 11.3848 22.4106 11.0667 22.4009C10.0563 22.3701 10.2095 22.5376 10.207 21.5418C10.2004 18.7772 10.2049 16.0126 10.205 13.2148ZM14.3017 17.3944C14.9998 17.4492 15.7929 16.8995 15.9514 16.1751C16.1332 15.3439 16.1919 14.5136 16.0234 13.6794C15.8529 12.835 15.2897 12.2287 14.5847 12.1863C13.6478 12.13 12.7073 12.1353 11.7686 12.1093C11.5731 12.1039 11.4868 12.1795 11.4872 12.3792C11.4905 13.9818 11.49 15.5844 11.4892 17.1871C11.4891 17.3464 11.5386 17.425 11.7209 17.4242C12.56 17.4205 13.3994 17.4448 14.3017 17.3944Z" fill="#273132"/>
<path d="M19.1509 21.8227C18.7786 21.4521 18.5598 21.0302 18.4709 20.5338C18.4361 20.3391 18.5065 20.2605 18.6829 20.2498C18.9586 20.2329 19.2349 20.2243 19.5109 20.2107C19.6475 20.2039 19.6622 20.3009 19.6919 20.401C19.8446 20.9162 20.2109 21.2166 20.7118 21.3491C21.2787 21.4991 21.8488 21.5063 22.4041 21.2832C22.8284 21.1128 23.1048 20.8048 23.1434 20.3454C23.1804 19.906 22.9871 19.5523 22.621 19.2996C22.0847 18.9296 21.4619 18.7601 20.8603 18.5421C20.4245 18.3843 19.9834 18.2482 19.6012 17.9634C18.9192 17.4552 18.5154 16.8071 18.6599 15.9442C18.8056 15.0748 19.3084 14.4417 20.166 14.1648C21.1021 13.8626 22.0393 13.9251 22.9608 14.2609C23.2337 14.3604 23.3611 14.5056 23.2066 14.8094C23.1031 15.013 23.0473 15.2408 22.977 15.4383C22.8094 15.499 22.7109 15.4057 22.605 15.3587C22.0589 15.1161 21.4873 15.0912 20.9144 15.1941C20.3581 15.294 19.9951 15.6533 19.9336 16.0956C19.8713 16.5434 20.0652 16.8475 20.6282 17.1447C21.1875 17.44 21.7947 17.6187 22.3838 17.8412C22.7876 17.9937 23.1906 18.1461 23.5339 18.4197C24.2943 19.0255 24.5581 19.8328 24.375 20.7539C24.2012 21.6277 23.6172 22.2396 22.7702 22.4473C21.5059 22.7574 20.2422 22.7861 19.1509 21.8227Z" fill="#273132"/>
</svg>
