<svg width="34" height="34" viewBox="0 0 34 34" fill="none" xmlns="http://www.w3.org/2000/svg">
<path d="M10.2265 6.08666C11.4547 6.08669 12.6497 6.09169 13.8446 6.08243C14.0716 6.08066 14.2061 6.15422 14.3206 6.35367C15.1518 7.80145 15.9937 9.24307 16.8335 10.6859C16.8932 10.7885 16.9344 10.9088 17.0959 10.9797C17.416 10.5536 17.6509 10.0675 17.9238 9.60725C18.5667 8.52301 19.1987 7.43235 19.827 6.33955C19.9254 6.16849 20.0323 6.08259 20.2408 6.08296C23.3389 6.08848 26.4368 6.08632 29.5348 6.08726C29.6104 6.08728 29.6858 6.1021 29.8558 6.11991C25.5964 13.4481 21.3631 20.7314 17.1336 28.0078C16.8881 27.9288 4.46265 6.46586 4.3548 6.08668C6.31121 6.08668 8.25227 6.08668 10.2265 6.08666ZM22.9514 9.235C21.0055 12.5808 19.0596 15.9267 17.0889 19.315C16.9864 19.1809 16.9334 19.1249 16.8955 19.06C16.4428 18.2871 15.9913 17.5135 15.5417 16.7388C13.7377 13.6303 11.9332 10.5222 10.1343 7.41076C10.0146 7.20387 9.87124 7.12008 9.62993 7.12245C8.5678 7.13286 7.50549 7.12491 6.44326 7.12717C6.35014 7.12738 6.2419 7.09101 6.14289 7.22379C9.76462 13.4526 13.3933 19.6935 17.0663 26.0105C20.7482 19.6747 24.3726 13.4382 27.9959 7.20332C27.8461 7.09918 27.7321 7.12938 27.6254 7.12907C26.5964 7.12597 25.5672 7.1364 24.5383 7.11975C24.2669 7.11535 24.1114 7.21163 23.985 7.43945C23.6576 8.02899 23.3143 8.60967 22.9514 9.235Z" fill="#273132"/>
</svg>
