<svg width="34" height="34" viewBox="0 0 34 34" fill="none" xmlns="http://www.w3.org/2000/svg">
<path d="M20.6617 26.5071C19.77 26.9957 18.9357 27.5404 18.0197 27.9314C17.2296 28.2686 16.4538 28.1673 15.7237 27.7688C13.9888 26.822 12.2655 25.854 10.5387 24.8923C10.076 24.6347 9.61756 24.3695 9.15768 24.1068C8.87821 23.9472 8.74916 23.7028 8.794 23.3867C8.95646 22.2413 9.17653 21.1056 9.37135 19.9658C9.51416 19.1303 9.66671 18.2958 9.80104 17.4585C9.94956 16.5328 10.1218 15.6109 10.2789 14.6865C10.4359 13.7625 10.5805 12.8364 10.7422 11.9132C10.9682 10.6228 11.2072 9.33458 11.436 8.0446C11.4996 7.68663 11.5266 7.32116 11.6068 6.96741C11.7236 6.45232 12.1447 6.07607 12.6068 6.02933C13.1259 5.97683 13.5627 6.23047 13.8326 6.70512C14.4104 7.72125 15.0004 8.73047 15.6004 9.7686C15.7653 9.63208 15.8293 9.45875 15.9047 9.29367C16.0252 9.03008 16.1709 8.79047 16.4109 8.61007C17.0837 8.10441 17.8633 8.52138 18.1924 9.12325C18.6793 10.0136 19.1844 10.894 19.6828 11.778C19.7092 11.8248 19.7454 11.866 19.7763 11.909C19.9664 11.905 20.0507 11.7592 20.1558 11.6545C20.5317 11.2798 20.8877 10.8841 21.277 10.5242C21.5865 10.2381 21.9521 10.056 22.3973 10.2029C22.8632 10.3566 23.1734 10.6505 23.2608 11.1523C23.4195 12.0632 23.6082 12.9697 23.7376 13.8846C23.8551 14.7149 24.0141 15.5386 24.1534 16.3638C24.3017 17.2427 24.4597 18.1231 24.6067 19.0028C24.7391 19.7948 24.9025 20.5818 25.0112 21.3794C25.088 21.9435 25.1932 22.5096 25.301 23.0716C25.4188 23.6858 25.3496 23.906 24.7969 24.2179C23.6627 24.8581 22.5209 25.4848 21.3817 26.116C21.1499 26.2444 20.9156 26.3683 20.6617 26.5071ZM20.8722 13.0017C20.1835 13.7022 19.4963 14.4042 18.8059 15.103C16.712 17.2221 14.6204 19.3437 12.5197 21.456C11.9293 22.0498 11.3103 22.6152 10.7044 23.1936C10.8086 23.3691 10.9035 23.413 10.9872 23.4597C12.7305 24.4329 14.4815 25.3925 16.2163 26.3805C16.807 26.7168 17.3391 26.7059 17.9251 26.373C19.8158 25.2988 21.7195 24.2475 23.6208 23.1921C23.7547 23.1178 23.8068 23.0501 23.7853 22.8832C23.7487 22.5984 23.6847 22.3203 23.637 22.0385C23.4602 20.9947 23.3043 19.9474 23.1252 18.904C22.9016 17.6006 22.6575 16.3006 22.4326 14.9974C22.2808 14.1176 22.1503 13.2341 22.0006 12.3539C21.9823 12.246 21.9847 12.108 21.8328 12.0294C21.5242 12.3425 21.2149 12.6562 20.8722 13.0017ZM18.0647 11.9128C17.7525 11.357 17.4403 10.8012 17.0982 10.1922C15.5118 13.3035 13.9532 16.3605 12.3945 19.4175C12.4873 19.4033 12.541 19.3645 12.5867 19.318C13.6149 18.2705 14.6398 17.2197 15.6706 16.1747C16.5943 15.2382 17.5167 14.3 18.4573 13.3807C18.6724 13.1704 18.7027 13.0057 18.5467 12.7613C18.3807 12.5012 18.2418 12.2238 18.0647 11.9128ZM11.4411 16.6403C11.2897 17.2711 11.1948 17.9099 11.1301 18.6396C11.4637 18.0022 11.7602 17.448 12.0454 16.8881C12.9212 15.1685 13.7893 13.445 14.6694 11.7276C14.7943 11.4838 14.7896 11.282 14.6476 11.0487C14.3607 10.5775 14.0977 10.0917 13.8215 9.6139C13.5345 9.11747 13.2437 8.62331 12.9283 8.08332C12.8729 8.32117 12.8238 8.49126 12.7945 8.6647C12.6254 9.66467 12.4863 10.6705 12.2871 11.6643C12.1289 12.4537 12.0009 13.2494 11.868 14.0411C11.7261 14.8871 11.5316 15.7264 11.4411 16.6403Z" fill="#273132"/>
</svg>
