<svg width="34" height="34" viewBox="0 0 34 34" fill="none" xmlns="http://www.w3.org/2000/svg">
<path d="M11.2914 27.0962C10.174 26.2184 9.65605 25.0888 9.74253 23.6946C9.82938 22.2944 10.563 21.2822 11.7537 20.5228C10.4665 19.6808 9.7261 18.5733 9.7379 17.0395C9.74961 15.518 10.4837 14.4214 11.7747 13.614C11.2499 13.2731 10.7805 12.9136 10.4438 12.4113C9.57297 11.1123 9.45575 9.73638 10.1729 8.35998C10.8697 7.02272 12.0179 6.29632 13.5523 6.28772C15.9417 6.27434 18.3314 6.27689 20.7208 6.28841C22.6387 6.29766 24.3557 8.0427 24.4002 9.95109C24.4378 11.5685 23.7341 12.7482 22.3572 13.6149C23.5465 14.3346 24.271 15.3485 24.3903 16.7376C24.4849 17.8395 24.1617 18.8161 23.4348 19.6486C22.0778 21.2026 19.3805 21.5926 17.4901 19.5608C17.4901 19.7662 17.4901 19.9252 17.4901 20.0842C17.4895 21.4339 17.4953 22.7836 17.4869 24.1332C17.4746 26.1134 15.7438 27.8219 13.7678 27.858C12.8559 27.8747 12.045 27.6376 11.2914 27.0962ZM16.6426 14.2809C16.6473 14.062 16.5056 14.0382 16.333 14.0388C15.4379 14.0418 14.5423 14.0244 13.6476 14.0448C11.59 14.0919 10.3664 15.8454 10.6424 17.5659C10.8377 18.7829 11.917 19.878 13.1351 20.0344C14.1588 20.1658 15.1882 20.0537 16.2135 20.1018C16.5432 20.1173 16.6546 20.0211 16.6516 19.6782C16.6358 17.899 16.644 16.1197 16.6426 14.2809ZM21.8487 12.8539C23.0971 12.185 23.7126 10.9578 23.48 9.60128C23.2621 8.32983 22.2609 7.37321 20.8691 7.1853C19.8263 7.04454 18.7715 7.15696 17.7223 7.13497C17.4692 7.12966 17.4895 7.31569 17.4895 7.48399C17.4892 9.26433 17.4951 11.0447 17.4824 12.825C17.4802 13.1284 17.5938 13.1991 17.8716 13.1948C18.7229 13.1818 19.5746 13.1984 20.4259 13.1885C20.9046 13.1829 21.37 13.0913 21.8487 12.8539ZM12.7104 13.0275C12.861 13.0618 13.01 13.1086 13.1624 13.1284C14.1873 13.2615 15.218 13.1485 16.2445 13.1965C16.5776 13.2121 16.6551 13.0833 16.6507 12.7749C16.6353 11.7018 16.6444 10.6283 16.644 9.55491C16.6438 8.85778 16.6426 8.16064 16.6437 7.46351C16.6441 7.27971 16.6148 7.12802 16.379 7.1336C15.3401 7.15819 14.2976 7.05922 13.2625 7.18488C11.7508 7.36838 10.7108 8.45915 10.6046 10.0688C10.5324 11.1628 11.169 12.4964 12.7104 13.0275ZM11.1105 25.6431C11.8685 26.7014 13.091 27.1906 14.2645 26.9054C15.5436 26.5944 16.4076 25.6597 16.5891 24.3175C16.7288 23.2848 16.6167 22.2414 16.6435 21.2031C16.6497 20.9637 16.5003 20.9435 16.3154 20.9442C15.4414 20.9476 14.5673 20.9357 13.6936 20.9495C13.0399 20.9598 12.4303 21.1343 11.8834 21.51C10.73 22.3024 10.1106 24.0578 11.1105 25.6431ZM18.101 18.8544C18.7256 19.6812 19.5771 20.1202 20.5918 20.0798C22.5487 20.0018 23.7774 18.281 23.4885 16.5868C23.2384 15.1199 22.0698 14.0612 20.5208 14.0581C19.3157 14.0557 18.3734 14.6263 17.8294 15.7388C17.3081 16.8049 17.4175 17.8353 18.101 18.8544ZM17.9491 14.1321C17.9561 14.1237 17.9652 14.1162 17.9695 14.1065C17.9737 14.097 17.9764 14.0766 17.9742 14.0758C17.8276 14.0206 17.6595 13.9929 17.5469 14.0988C17.4424 14.1972 17.4608 14.3521 17.6061 14.5956C17.7313 14.4227 17.8272 14.2903 17.9491 14.1321Z" fill="#273132"/>
</svg>
