<svg width="34" height="34" viewBox="0 0 34 34" fill="none" xmlns="http://www.w3.org/2000/svg">
<path d="M16.8672 28.2426C12.5633 28.2423 8.29268 28.2424 4.02203 28.2409C3.82328 28.2408 3.62093 28.2482 3.42638 28.2155C2.18345 28.007 1.67569 26.9107 2.28352 25.7212C2.57516 25.1505 2.90844 24.601 3.22527 24.0433C5.24084 20.4952 7.25545 16.9466 9.27372 13.4C10.4933 11.2569 11.7187 9.11718 12.9424 6.97647C13.0027 6.87096 13.069 6.76857 13.1373 6.66802C13.8202 5.66357 15.0207 5.60777 15.746 6.58474C16.2732 7.29489 16.6505 8.10321 17.0896 8.8707C17.6928 9.92526 18.2925 10.9819 18.9342 12.1087C19.1916 11.6708 19.4178 11.2889 19.6411 10.9052C19.8135 10.609 19.9668 10.3005 20.1555 10.0151C20.8646 8.94305 22.1699 8.91984 22.8663 10.0004C23.4108 10.8451 23.8816 11.7376 24.3789 12.6125C25.9912 15.4485 27.6005 18.2863 29.2113 21.1233C30.0741 22.6428 30.9414 24.1598 31.7981 25.6827C32.0353 26.1043 32.1814 26.5576 32.0578 27.05C31.8755 27.7761 31.2283 28.2336 30.343 28.24C28.8494 28.2508 27.3558 28.2454 25.8621 28.2452C22.8749 28.2449 19.8877 28.2435 16.8672 28.2426ZM17.7984 14.1176C17.916 13.8531 17.7154 13.6713 17.6089 13.482C16.6273 11.7378 15.6335 10.0004 14.642 8.26176C14.6005 8.18903 14.5762 8.09086 14.4202 8.09437C10.9727 14.1621 7.51553 20.2469 4.03477 26.3733C4.18205 26.3928 4.23537 26.406 4.2887 26.406C6.43484 26.4074 8.58099 26.4052 10.7271 26.4116C10.9366 26.4122 11.0282 26.3229 11.0662 26.1341C11.1148 25.8926 11.2272 25.6772 11.3485 25.465C11.9744 24.3708 12.5994 23.2761 13.2224 22.1803C14.7417 19.508 16.2597 16.8349 17.7984 14.1176ZM17.4204 18.5114C15.9412 21.1206 14.4621 23.7298 12.9626 26.3748C16.9737 26.3748 20.9099 26.3748 24.9262 26.3748C22.9213 22.8478 20.9508 19.3813 18.9407 15.8453C18.4068 16.7812 17.9255 17.6249 17.4204 18.5114ZM29.5081 26.411C29.6794 26.3993 29.8568 26.4395 30.0827 26.3471C27.2325 21.3453 24.3963 16.3679 21.542 11.3588C21.4655 11.4425 21.4212 11.4761 21.396 11.5206C20.9589 12.2898 20.5267 13.0617 20.0869 13.8293C19.9981 13.9842 20.0639 14.0975 20.1374 14.2263C22.0164 17.5214 23.9 20.8139 25.7658 24.1164C26.1566 24.8082 26.6079 25.4712 26.8822 26.2243C26.9485 26.4062 27.0714 26.4108 27.2204 26.4106C27.9617 26.4095 28.703 26.4106 29.5081 26.411Z" fill="#273132"/>
</svg>
