<svg width="32" height="32" viewBox="0 0 32 32" fill="none" xmlns="http://www.w3.org/2000/svg">
<path d="M30.0567 13.375C30.0567 17.1455 30.0446 20.8848 30.0682 24.6239C30.0723 25.2689 29.95 25.8709 29.7284 26.4536C29.3978 27.3228 28.88 28.0726 28.1829 28.703C27.6008 29.2294 26.9476 29.6288 26.2024 29.8458C25.7652 29.9732 25.2963 30.0485 24.8414 30.0495C19.0399 30.0627 13.2382 30.0357 7.43691 30.0729C5.83805 30.0831 4.60531 29.4285 3.54527 28.3358C2.86598 27.6356 2.40517 26.7969 2.19655 25.8373C2.12349 25.5013 2.06733 25.1535 2.06688 24.8109C2.05911 18.9469 2.06417 13.0829 2.05811 7.21885C2.05723 6.36898 2.37718 5.6374 2.75674 4.90121C3.11886 4.19881 3.62914 3.64101 4.23597 3.16799C5.1563 2.4506 6.18762 2.0653 7.38408 2.06856C13.3106 2.08475 19.2371 2.07278 25.1636 2.07092C25.9445 2.07067 26.6254 2.38887 27.2794 2.76495C28.2127 3.30167 28.9232 4.07272 29.43 5.0117C29.6536 5.42584 29.8075 5.8911 29.913 6.3515C30.0146 6.79511 30.0472 7.26212 30.0507 7.7193C30.0651 9.59402 30.0567 11.4689 30.0567 13.375ZM13.4057 29.0409C17.1655 29.0171 20.9252 28.9936 24.685 28.969C25.303 28.965 25.8771 28.8156 26.4309 28.5247C27.9693 27.7166 28.8246 26.4677 28.8823 24.7277C28.9388 23.0214 28.959 21.3132 28.9611 19.6059C28.9643 16.8985 28.9418 14.1911 28.9249 11.4837C28.9157 10.0151 28.9041 8.54647 28.8735 7.07827C28.8672 6.77424 28.8237 6.45098 28.7091 6.17295C28.3548 5.31335 27.864 4.56102 27.0741 4.00348C26.3368 3.48308 25.5575 3.1728 24.6587 3.16172C23.9088 3.15248 23.1589 3.13917 22.409 3.14024C17.3261 3.14745 12.2432 3.14994 7.16049 3.18163C6.71765 3.18439 6.2592 3.34267 5.83755 3.50534C5.0721 3.80064 4.4586 4.35942 3.98607 4.98964C3.6221 5.47508 3.42333 6.11682 3.27208 6.71942C3.14258 7.23539 3.15668 7.79439 3.15547 8.33447C3.14419 13.3548 3.13339 18.3753 3.14976 23.3956C3.15234 24.1873 3.24109 24.9875 3.38019 25.7677C3.55791 26.7645 4.18344 27.5236 4.96058 28.121C5.66699 28.6641 6.49058 28.9657 7.40694 28.9727C9.38581 28.9879 11.3646 29.0173 13.4057 29.0409Z" fill="#FDFCFC"/>
<path d="M19.7502 16.739C19.7262 16.7353 19.7022 16.7316 19.6504 16.7061C19.3389 16.5041 18.8945 16.5214 18.7304 16.7191C18.234 16.8514 17.828 17.3552 17.8197 17.8598C17.7981 19.1616 17.7806 20.4635 17.7599 21.7653C17.7395 23.0548 17.7169 24.3443 17.6957 25.6338C17.6898 25.9953 17.5175 26.1734 17.1534 26.1728C15.6535 26.17 14.1536 26.1639 12.6537 26.1575C12.3621 26.1563 12.1138 25.9101 12.1103 25.6158C12.1059 25.2513 12.1093 24.8867 12.1093 24.5221C12.1093 20.6577 12.1176 16.7933 12.0982 12.929C12.0959 12.4664 12.3864 12.1214 12.8891 12.1335C14.2736 12.1665 15.6595 12.1446 17.0448 12.1449C17.4524 12.1451 17.5987 12.2674 17.6889 12.6691C17.7085 12.7562 17.7482 12.8389 17.788 12.9497C18.0509 12.8242 18.3152 12.7054 18.5729 12.5737C19.1 12.3042 19.6625 12.1468 20.2488 12.1633C20.9169 12.182 21.6038 12.1833 22.2455 12.3419C23.2294 12.5851 24.0724 13.1292 24.7324 13.9184C25.2454 14.5317 25.58 15.2356 25.8181 15.9999C26.0032 16.5942 26.0813 17.1912 26.081 17.8081C26.0798 20.4225 26.0847 23.037 26.0857 25.6514C26.0859 26.0611 25.9926 26.1556 25.5887 26.1575C24.1409 26.1643 22.693 26.1686 21.2452 26.1737C20.7476 26.1755 20.539 25.977 20.5361 25.482C20.522 23.0446 20.4987 20.6073 20.5082 18.17C20.5102 17.6446 20.3469 17.2335 19.9575 16.8567C19.8687 16.8035 19.8095 16.7712 19.7502 16.739ZM24.7549 16.3812C24.6085 16.0214 24.4908 15.6466 24.3103 15.3049C23.8427 14.42 23.1181 13.8224 22.1712 13.4951C21.3952 13.2269 20.5967 13.2653 19.8011 13.3432C19.5647 13.3664 19.3316 13.4722 19.1078 13.5659C18.5103 13.816 18.0303 14.2162 17.6348 14.7296C17.4834 14.9261 17.2477 15.0424 17.0065 14.9381C16.7785 14.8396 16.5744 14.6898 16.6183 14.3636C16.6498 14.1291 16.6046 13.8854 16.6128 13.6464C16.6219 13.381 16.5175 13.2791 16.245 13.283C15.381 13.2954 14.5167 13.2876 13.6525 13.2876C13.5319 13.2876 13.4113 13.2876 13.2857 13.2876C13.2857 17.2532 13.2857 21.1726 13.2857 25.1119C14.2472 25.1119 15.183 25.0962 16.1178 25.1187C16.5712 25.1296 16.6086 25.0152 16.6095 24.6275C16.6141 22.67 16.6257 20.7126 16.6256 18.7551C16.6256 18.1183 16.6257 17.4972 16.9222 16.8971C17.1858 16.3637 17.5603 15.9284 18.083 15.7234C18.8665 15.4161 19.6877 15.4275 20.455 15.8493C21.0309 16.1658 21.3373 16.6876 21.4959 17.361C21.5185 18.274 21.5535 19.187 21.5607 20.1002C21.5727 21.6175 21.5665 23.1349 21.5693 24.6522C21.5695 24.7555 21.5561 24.87 21.5955 24.9585C21.6289 25.0336 21.7292 25.1286 21.8008 25.1294C22.8296 25.1401 23.8585 25.1352 24.8874 25.137C25.0405 25.1373 25.0975 25.0761 25.0513 24.8702C25.0512 24.2301 25.0511 23.59 25.069 22.892C25.0648 21.1275 25.0637 19.3629 25.0507 17.5984C25.0496 17.4562 24.9667 17.3147 24.9132 17.1205C24.9045 16.9964 24.8957 16.8723 24.9177 16.7219C24.8664 16.6249 24.815 16.5278 24.7549 16.3812Z" fill="#FDFCFC"/>
<path d="M11.5099 25.0621C11.5095 25.2911 11.5121 25.4891 11.5081 25.6869C11.5021 25.9836 11.3185 26.1724 11.0116 26.1721C9.4804 26.1707 7.94922 26.1632 6.41804 26.1575C6.16473 26.1565 6.04338 26.0151 6.02246 25.7749C6.01525 25.6922 6.01922 25.6084 6.01922 25.5251C6.01911 21.2857 6.01907 17.0463 6.01918 12.8068C6.0192 12.2314 6.09884 12.1477 6.67823 12.1462C8.06352 12.1427 9.44886 12.1372 10.8341 12.1458C11.4116 12.1494 11.5028 12.2492 11.5033 12.8127C11.5072 16.8854 11.5081 20.9582 11.5099 25.0621ZM8.28133 25.1115C8.99561 25.1115 9.70988 25.1115 10.4313 25.1115C10.4313 21.1508 10.4313 17.2314 10.4313 13.3168C9.30047 13.3168 8.19441 13.3168 7.097 13.3168C7.097 17.2641 7.097 21.1829 7.097 25.1115C7.49041 25.1115 7.85465 25.1115 8.28133 25.1115Z" fill="#FDFCFC"/>
<path d="M6.03625 8.61194C6.04324 8.54874 6.05023 8.48554 6.08028 8.39381C6.12737 8.30355 6.1514 8.24182 6.17543 8.18009C6.31952 7.64599 6.70218 7.30667 7.12763 6.99638C7.84592 6.47251 8.67847 6.44234 9.47882 6.59285C10.3519 6.75703 10.9788 7.33024 11.3401 8.1708C11.5809 8.73092 11.5873 9.3233 11.4644 9.87894C11.3167 10.5464 10.8903 11.0893 10.2751 11.4248C9.42879 11.8864 8.56419 11.993 7.63484 11.5953C6.94794 11.3014 6.47606 10.8472 6.18518 10.1321C6.14616 10.0358 6.10532 9.98655 6.06449 9.93725C6.05581 9.85465 6.04713 9.77205 6.04401 9.63578C6.04513 9.25872 6.04069 8.93533 6.03625 8.61194ZM7.3297 8.3107C7.29666 8.37377 7.26362 8.43684 7.2179 8.5319C7.2168 8.55481 7.2157 8.57772 7.17038 8.61825C7.14444 8.96522 7.11791 9.31216 7.09624 9.65941C7.09574 9.66748 7.14996 9.67897 7.1826 9.73833C7.40136 10.0052 7.56808 10.3861 7.84992 10.5147C8.4026 10.7668 9.0379 10.8327 9.60075 10.5212C9.87798 10.3677 10.1418 10.0988 10.285 9.81769C10.46 9.47416 10.497 9.08143 10.3359 8.67084C10.2025 8.33066 9.77174 7.71808 9.25489 7.68372C8.90864 7.50507 8.4397 7.52701 8.18409 7.73294C7.82961 7.80613 7.54617 7.98082 7.3297 8.3107Z" fill="#FDFCFC"/>
<path d="M6.01541 8.62073C6.04069 8.93536 6.04513 9.25874 6.04057 9.61112C5.83642 9.47065 5.81767 8.95866 6.01541 8.62073Z" fill="#FDFCFC"/>
<path d="M6.15517 8.17996C6.15141 8.24183 6.12738 8.30355 6.0816 8.36999C6.08487 8.30975 6.10989 8.24478 6.15517 8.17996Z" fill="#FDFCFC"/>
<path d="M6.0506 9.94852C6.10534 9.98657 6.14617 10.0359 6.1823 10.1082C6.13062 10.074 6.08365 10.0169 6.0506 9.94852Z" fill="#FDFCFC"/>
<path d="M19.7582 16.7597C19.8095 16.7712 19.8687 16.8035 19.9349 16.8528C19.8833 16.84 19.8247 16.8102 19.7582 16.7597Z" fill="#FDFCFC"/>
<path d="M24.9024 16.735C24.8426 16.6586 24.7982 16.5691 24.7588 16.4552C24.8151 16.5278 24.8664 16.6249 24.9024 16.735Z" fill="#FDFCFC"/>
<path d="M9.26127 7.70624C8.94124 7.73433 8.61481 7.7399 8.26111 7.73849C8.43969 7.52701 8.90863 7.50507 9.26127 7.70624Z" fill="#FDFCFC"/>
<path d="M7.19251 8.60944C7.21411 8.95296 7.2136 9.3053 7.19588 9.67325C7.14998 9.67897 7.09575 9.66748 7.09626 9.65941C7.11793 9.31216 7.14446 8.96522 7.19251 8.60944Z" fill="#FDFCFC"/>
<path d="M7.34845 8.30774C7.33688 8.3666 7.30657 8.42842 7.25342 8.49509C7.26362 8.43685 7.29666 8.37378 7.34845 8.30774Z" fill="#FDFCFC"/>
</svg>
